<?xml version="1.0" standalone="no"?>
<!DOCTYPE svg PUBLIC "-//W3C//DTD SVG 1.1//EN" "http://www.w3.org/Graphics/SVG/1.1/DTD/svg11.dtd" >
<svg xmlns="http://www.w3.org/2000/svg">
<metadata>Generated by IcoMoon</metadata>
<defs>
<font id="employment" horiz-adv-x="1024">
<font-face units-per-em="1024" ascent="960" descent="-64" />
<missing-glyph horiz-adv-x="1024" />
<glyph unicode="&#x20;" horiz-adv-x="512" d="" />
<glyph unicode="&#xe900;" glyph-name="decision-making" d="M599.032 757.514c20.408 21.522 32.968 50.556 32.968 82.486 0 66.168-53.832 120-120 120s-120-53.832-120-120c0-31.93 12.56-60.964 32.968-82.486-55.388-30.726-92.968-89.81-92.968-157.514v-30c0-16.568 13.432-30 30-30h300c16.568 0 30 13.432 30 30v30c0 67.704-37.58 126.788-92.968 157.514zM512 900c33.084 0 60-26.916 60-60s-26.916-60-60-60-60 26.916-60 60 26.916 60 60 60zM392 600c0 66.168 53.832 120 120 120s120-53.832 120-120h-240zM1010.64 414.962l-180 120c-9.206 6.138-21.042 6.71-30.796 1.488-9.754-5.22-15.844-15.386-15.844-26.45v-30h-544v30c0 11.064-6.090 21.23-15.844 26.45-9.756 5.222-21.592 4.646-30.796-1.488l-180-120c-8.346-5.564-13.36-14.932-13.36-24.962s5.014-19.398 13.36-24.962l180-120c9.206-6.136 21.040-6.708 30.796-1.488 9.754 5.22 15.844 15.386 15.844 26.45v30h182v-122h-30c-11.038 0-21.182-6.060-26.414-15.778-5.232-9.716-4.708-21.522 1.37-30.736l120-182c5.55-8.42 14.96-13.486 25.044-13.486s19.494 5.066 25.044 13.486l120 182c6.076 9.214 6.602 21.020 1.37 30.736-5.232 9.718-15.376 15.778-26.414 15.778h-30v122h182v-30c0-11.064 6.090-21.23 15.844-26.45s21.592-4.648 30.796 1.488l180 120c8.346 5.564 13.36 14.932 13.36 24.962s-5.014 19.398-13.36 24.962zM844 326.056v3.944c0 16.568-13.432 30-30 30h-242c-16.568 0-30-13.432-30-30v-182c0-16.568 13.432-30 30-30h4.286l-64.286-97.5-64.286 97.5h4.286c16.568 0 30 13.432 30 30v182c0 16.568-13.432 30-30 30h-242c-16.568 0-30-13.432-30-30v-3.944l-95.916 63.944 95.916 63.944v-3.944c0-16.568 13.432-30 30-30h604c16.568 0 30 13.432 30 30v3.944l95.916-63.944-95.916-63.944z" />
<glyph unicode="&#xe901;" glyph-name="printer" d="M601.432 273.514c20.408 21.522 32.968 50.556 32.968 82.486 0 66.168-53.832 120-120 120s-120-53.832-120-120c0-31.93 12.56-60.964 32.968-82.486-55.388-30.726-92.968-89.81-92.968-157.514v-30c0-16.568 13.432-30 30-30h300c16.568 0 30 13.432 30 30v30c0 67.704-37.58 126.788-92.968 157.514zM514.4 416c33.084 0 60-26.916 60-60s-26.916-60-60-60-60 26.916-60 60 26.916 60 60 60zM394.4 116c0 66.168 53.832 120 120 120s120-53.832 120-120h-240zM934 776h-152v154c0 16.568-13.432 30-30 30h-482c-16.568 0-30-13.432-30-30v-154h-150c-49.626 0-90-40.374-90-90v-300c0-49.626 40.374-90 90-90h150v-330c0-16.568 13.432-30 30-30h482c16.568 0 30 13.432 30 30v330h152c49.626 0 90 40.374 90 90v300c0 49.626-40.374 90-90 90zM300 900h422v-184h-422v184zM722-4h-422v480h422v-480zM964 386c0-16.542-13.458-30-30-30h-152v120h90c16.568 0 30 13.432 30 30s-13.432 30-30 30c-28.578 0-693.608 0-722 0-16.568 0-30-13.432-30-30s13.432-30 30-30h90v-120h-150c-16.542 0-30 13.458-30 30v300c0 16.542 13.458 30 30 30h150v-30c0-16.568 13.432-30 30-30h482c16.568 0 30 13.432 30 30v30h152c16.542 0 30-13.458 30-30v-300zM902 626c0-16.569-13.431-30-30-30s-30 13.431-30 30c0 16.569 13.431 30 30 30s30-13.431 30-30zM180 626c0-16.569-13.431-30-30-30s-30 13.431-30 30c0 16.569 13.431 30 30 30s30-13.431 30-30z" />
<glyph unicode="&#xe902;" glyph-name="megaphone" d="M270 600h-120c-16.568 0-30-13.432-30-30s13.432-30 30-30h120c16.568 0 30 13.432 30 30s-13.432 30-30 30zM270 480h-120c-16.568 0-30-13.432-30-30s13.432-30 30-30h120c16.568 0 30 13.432 30 30s-13.432 30-30 30zM904 656.982v213.018c0 49.626-40.374 90-90 90-45.062 0-82.49-33.292-88.994-76.568l-44.94-44.94c-75.304-75.304-181.028-118.492-290.066-118.492h-240c-82.71 0-150-67.29-150-150v-120c0-82.71 67.29-150 150-150h30v-274c0-49.626 40.374-90 90-90s90 40.374 90 90v154h30c49.626 0 90 40.374 90 90v20.126c75.724-16.764 145.796-54.348 200.066-108.618l44.94-44.94c6.504-43.276 43.932-76.568 88.994-76.568 49.626 0 90 40.374 90 90v213.018c68.384 13.936 120 74.542 120 146.982s-51.616 133.044-120 146.982zM300 26c0-16.542-13.458-30-30-30s-30 13.458-30 30v274h60c0-11.186 0-265.702 0-274zM150 360c-49.626 0-90 40.374-90 90v120c0 49.626 40.374 90 90 90h210v-300c-23.106 0-186.338 0-210 0zM420 270c0-16.542-13.458-30-30-30h-30v60h30c10.036 0 20.042-0.372 30-1.096v-28.904zM724 222.428l-1.508 1.506c-79.526 79.526-188.41 127.86-302.492 135.112v301.908c114.082 7.25 222.966 55.586 302.492 135.112l1.508 1.508v-575.146zM844 150c0-16.542-13.458-30-30-30s-30 13.458-30 30v720c0 16.542 13.458 30 30 30s30-13.458 30-30c0-13.936 0-706.982 0-720zM904 425.14v169.72c34.922-12.382 60-45.748 60-84.86s-25.078-72.478-60-84.86z" />
<glyph unicode="&#xe903;" glyph-name="phone-call" d="M777.143 762.319l-119.993 183.989c-5.54 8.492-14.99 13.612-25.126 13.612s-19.588-5.12-25.126-13.612l-119.993-183.989c-6.014-9.222-6.494-20.994-1.25-30.674s15.37-15.71 26.376-15.71h29.998v-89.995c0-16.568 13.432-29.998 29.998-29.998h119.993c16.568 0 29.998 13.432 29.998 29.998v89.995h29.998c11.010 0 21.132 6.030 26.376 15.71 5.244 9.678 4.766 21.454-1.248 30.674zM692.020 775.931c-16.568 0-29.998-13.432-29.998-29.998v-89.995h-59.996v89.995c0 16.568-13.432 29.998-29.998 29.998h-4.62l64.616 99.075 64.616-99.075h-4.62zM1020.504 520.001c-5.204 9.81-15.398 15.946-26.502 15.946h-31.998v89.995c0 16.568-13.432 29.998-29.998 29.998h-119.993c-16.568 0-29.998-13.432-29.998-29.998v-89.995h-30c-11.064 0-21.228-6.090-26.45-15.844-5.218-9.754-4.648-21.59 1.49-30.794l119.993-179.989c5.542-8.312 14.856-13.322 24.844-13.36 0.040 0 0.078 0 0.116 0 9.948 0 19.248 4.93 24.832 13.168l121.993 179.989c6.23 9.194 6.874 21.076 1.67 30.884zM872.215 379.729l-64.146 96.219h3.944c16.568 0 29.998 13.432 29.998 29.998v89.995h59.996v-89.993c0-16.568 13.432-29.998 29.998-29.998h5.426l-65.216-96.221zM869.617 209.606l-169.695 169.695c-35.090 35.090-92.185 35.088-127.273 0-36.27-36.27-44.444-44.442-63.76-63.758l-129.023 127.519c11.972 11.974 50.598 50.598 63.512 63.51 35.090 35.088 35.090 92.181 0 127.269l-169.699 169.701c-35.088 35.086-92.181 35.086-127.269 0-33.91-33.912-52.358-52.358-84.85-84.85-81.882-81.88-82.296-214.671 0.048-297.016l426.194-424.19c81.872-81.872 215.091-81.878 296.966 0 32.37 32.37 52.478 52.476 84.85 84.848 35.090 35.086 35.090 92.181 0 127.271zM188.837 761.117c11.7 11.698 30.728 11.696 42.424 0l169.697-169.695c11.698-11.698 11.698-30.728 0-42.424l-21.214-21.212-212.119 212.119 21.212 21.212zM742.348 39.907c-58.478-58.478-153.639-58.482-212.169 0.050l-426.19 424.192c-58.618 58.616-58.628 153.495 0 212.119l21.21 21.21 212.119-212.119-21.21-21.212c-11.76-11.758-11.704-30.858 0.126-42.548l171.695-169.695c11.736-11.598 30.632-11.544 42.298 0.124l21.212 21.212c9.322-9.322 202.815-202.817 212.117-212.119l-21.208-21.214zM827.195 124.759l-21.212-21.212c-9.322 9.322-202.815 202.817-212.117 212.119l21.208 21.212c11.726 11.726 30.7 11.726 42.426 0l169.695-169.695c11.698-11.698 11.698-30.728 0-42.424z" />
<glyph unicode="&#xe904;" glyph-name="chronometer" d="M847.218 636.152c12.716-10.67 31.64-8.968 42.264 3.698l77.134 91.926c10.65 12.692 8.996 31.614-3.698 42.264l-91.926 77.134c-12.676 10.636-31.616 8.994-42.266-3.698l-77.132-91.926c-10.648-12.692-8.994-31.614 3.7-42.264l22.98-19.282-39.408-46.964c-40.536 29.090-86.852 50.6-136.866 62.46v70.5h30c16.568 0 30 13.432 30 30v120c0 16.568-13.432 30-30 30h-239.998c-16.568 0-30-13.432-30-30v-120c0-16.568 13.432-30 30-30h30v-70.5c-50.014-11.86-96.33-33.37-136.866-62.46l-39.408 46.964 22.98 19.282c12.694 10.65 14.348 29.572 3.7 42.264l-77.132 91.928c-10.642 12.68-29.578 14.346-42.266 3.698l-91.926-77.134c-12.694-10.65-14.348-29.574-3.698-42.264l77.134-91.926c10.666-12.716 29.606-14.322 42.264-3.698l22.98 19.284 39.444-47.010c-72.278-70.832-117.206-169.474-117.206-278.428 0-215.032 173.826-394 390-394 216.45 0 390 179.218 390 394 0 108.954-44.928 207.596-117.208 278.426l39.444 47.010 22.98-19.284zM161.2 701.4l-38.568 45.962 45.962 38.566 38.566-45.962-45.96-38.566zM422.002 900h180v-60h-180v60zM542.002 780v-61.142c-9.902 0.756-19.908 1.142-30 1.142s-20.098-0.386-30-1.142v61.142h60zM842.002 330c0-184.168-148.038-334-330-334s-330 149.832-330 334c0 181.962 148.038 330 330 330s330-148.038 330-330zM855.408 785.928l45.962-38.566-38.566-45.962-45.962 38.566 38.566 45.962zM752.002 360h-210v210c0 16.568-13.432 30-30 30-148.878 0-270-121.122-270-270 0-148.734 120.596-274 270-274 149.512 0 270 125.348 270 274 0 16.568-13.432 30-30 30zM512.002 116c-113.832 0-210 98-210 214 0 105.61 78.366 193.262 180 207.864v-207.864c0-16.568 13.432-30 30-30h207.842c-14.812-102.414-103.972-184-207.842-184z" />
<glyph unicode="&#xe905;" glyph-name="thinking" d="M710.471 660.001h-51.042c-4.746 9.936-10.28 19.48-16.572 28.584l25.554 44.262c8.286 14.348 3.37 32.696-10.98 40.98l-103.922 60c-6.89 3.98-15.086 5.056-22.764 2.998-7.686-2.058-14.238-7.086-18.216-13.978l-25.2-43.646c-11.614 1.070-22.106 1.070-33.718 0l-25.2 43.646c-3.978 6.89-10.532 11.918-18.216 13.978-7.684 2.058-15.872 0.982-22.764-2.998l-103.922-60c-14.348-8.284-19.266-26.63-10.98-40.98l25.552-44.264c-6.292-9.104-11.824-18.648-16.57-28.584h-51.042c-16.568 0-30-13.432-30-30v-120c0-16.566 13.432-29.996 30-29.996h51.042c4.746-9.936 10.28-19.48 16.57-28.584l-25.552-44.264c-8.286-14.348-3.368-32.696 10.98-40.98l103.922-60c6.89-3.978 15.084-5.056 22.764-2.998 7.686 2.058 14.238 7.086 18.216 13.978l25.2 43.646c11.614-1.070 22.106-1.070 33.718 0l25.2-43.646c8.33-14.428 26.722-19.214 40.98-10.98l103.922 60c14.35 8.284 19.266 26.632 10.98 40.98l-25.554 44.262c6.292 9.104 11.826 18.648 16.572 28.584h51.042c16.568 0 30 13.432 30 30v120c0 16.568-13.432 30-30 30zM680.465 540.002h-41.024c-12.694 0-24.014-7.99-28.268-19.95-6.066-17.068-15.2-32.818-27.14-46.812-8.244-9.664-9.51-23.472-3.158-34.472l20.57-35.63-51.96-30-20.302 35.166c-5.424 9.394-15.396 15.002-25.972 15.002-1.804 0-3.626-0.164-5.448-0.5-10.372-1.912-19.044-2.802-27.296-2.802s-16.926 0.89-27.296 2.802c-12.474 2.302-25.072-3.506-31.42-14.502l-20.302-35.166-51.96 30 20.568 35.63c6.352 11 5.086 24.806-3.158 34.47-11.942 13.998-21.072 29.748-27.138 46.814-4.254 11.96-15.574 19.95-28.268 19.95h-41.024v60h41.024c12.694 0 24.014 7.99 28.268 19.95 6.066 17.066 15.198 32.816 27.138 46.814 8.244 9.664 9.51 23.47 3.158 34.47l-20.568 35.63 51.96 30 20.302-35.166c6.35-10.996 18.926-16.8 31.42-14.502 10.372 1.912 19.044 2.802 27.296 2.802s16.926-0.89 27.296-2.802c12.476-2.304 25.072 3.504 31.42 14.502l20.302 35.166 51.96-30-20.57-35.63c-6.352-11-5.086-24.81 3.158-34.472 11.942-13.996 21.074-29.746 27.14-46.812 4.254-11.96 15.574-19.95 28.268-19.95h41.024v-60zM470.468 660.003c-49.626 0-90-40.374-90-90s40.372-90 90-90c49.626 0 90 40.374 90 90s-40.374 90-90 90zM470.468 540.002c-16.542 0-30 13.458-30 30s13.456 30 30 30c16.542 0 30-13.458 30-30s-13.458-30-30-30zM933.886 430.252l-73.484 146.965c-4.226 227.841-203.093 406.846-435.908 380.137-173.659-19.914-316.779-159.857-340.307-332.753-12.55-92.236 7.42-185.083 56.28-262.531v-396.072c0-16.568 13.432-29.998 30-29.998h420.002c16.568 0 30 13.432 30 30v92h97.034c45.292 0 83.686 33.892 89.31 78.876l20.174 163.127h26.4c31.42 0 60.042 15.958 76.558 42.684 16.522 26.728 17.992 59.462 3.94 87.564zM878.907 374.23c-2.642-4.278-10.422-14.228-25.52-14.228h-52.918c-15.144 0-27.914-11.288-29.774-26.318l-23.424-189.405c-1.874-14.982-14.672-26.28-29.77-26.28h-127.034c-16.568 0-30-13.432-30-30v-92h-360.001v374.935c0 5.91-1.746 11.688-5.018 16.61-44.41 66.796-62.808 148.111-51.806 228.967 19.882 146.123 140.877 264.399 287.691 281.235 204.349 23.44 369.137-137.083 369.137-327.743 0-4.658 1.084-9.25 3.168-13.416l76.584-153.167c6.75-13.502 1.33-24.912-1.314-29.19z" />
<glyph unicode="&#xe906;" glyph-name="mouse" d="M1015.212 951.17c-11.714 11.716-30.708 11.716-42.424 0l-179.864-179.866c-33.446 15.932-74.76 10.088-102.412-17.562l-30.032-30.034c-125.598 70.062-287.596 51.79-394.204-54.814l-169.694-169.694c-128.78-128.782-128.778-337.884 0-466.66 128.656-128.656 337.996-128.664 466.66 0l169.694 169.694c107.764 107.764 124.242 270.194 54.858 394.246l29.99 29.99c27.654 27.652 33.496 68.966 17.562 102.412l179.864 179.864c11.718 11.716 11.718 30.708 0.002 42.424zM690.514 244.658l-169.694-169.694c-105.268-105.266-276.546-105.264-381.812 0-105.33 105.332-105.328 276.484 0 381.812l169.694 169.694c98.044 98.044 253.428 104.828 359.416 20.026l-87.31-87.31c-33.446 15.93-74.758 10.088-102.41-17.562l-84.848-84.846c-35.090-35.090-35.090-92.182 0-127.272 35.088-35.088 92.182-35.090 127.272 0l84.846 84.846c27.8 27.796 33.55 69.134 17.602 102.45l24.672 24.672c0.050 0.050 0.102 0.1 0.15 0.15l62.458 62.458c84.448-105.398 78.54-260.848-20.036-359.424zM563.242 456.776l-84.846-84.846c-11.7-11.7-30.726-11.696-42.426 0-11.698 11.696-11.698 30.728 0 42.424l84.85 84.846c11.704 11.702 30.734 11.692 42.424 0 11.724-11.726 11.724-30.698-0.002-42.424zM775.362 668.894l-22.176-22.176c-6.384 7.644-13.124 15.052-20.248 22.176-7.152 7.152-14.566 13.882-22.186 20.236l22.186 22.186c11.7 11.696 30.73 11.696 42.426 0 11.696-11.694 11.696-30.726-0.002-42.422z" />
<glyph unicode="&#xe907;" glyph-name="strategy" d="M773.214 351.212l-38.788 38.788 38.786 38.786c11.718 11.716 11.718 30.712 0 42.428-11.714 11.716-30.71 11.716-42.426 0l-38.786-38.788-38.788 38.788c-11.714 11.716-30.71 11.716-42.426 0s-11.716-30.71 0-42.426l38.788-38.788-38.786-38.786c-11.716-11.716-11.716-30.71 0-42.426 11.714-11.714 30.71-11.716 42.426 0l38.786 38.786 38.788-38.788c11.714-11.714 30.71-11.716 42.426 0s11.716 30.71 0 42.426zM413.214 591.212l-38.788 38.788 38.786 38.786c11.716 11.716 11.716 30.71 0 42.426-11.714 11.716-30.71 11.716-42.426 0l-38.786-38.786-38.788 38.788c-11.714 11.716-30.71 11.716-42.426 0s-11.716-30.71 0-42.426l38.788-38.788-38.786-38.786c-11.718-11.716-11.718-30.712 0-42.428 11.714-11.714 30.71-11.716 42.426 0l38.786 38.788 38.788-38.788c11.714-11.714 30.71-11.716 42.426 0s11.716 30.71 0 42.426zM833.212 711.212l-60 60c-0.058 0.058-0.12 0.104-0.178 0.162-11.832 11.644-30.746 11.336-42.248-0.162l-60-60c-11.716-11.716-11.716-30.71 0-42.426 11.714-11.716 30.71-11.716 42.426 0l8.788 8.788v-77.574h-210c-16.568 0-30-13.432-30-30v-150h-65.16c-12.384 34.918-45.73 60-84.84 60-49.626 0-90-40.374-90-90s40.374-90 90-90c39.11 0 72.456 25.082 84.84 60h95.16c16.568 0 30 13.432 30 30v150h210c16.568 0 30 13.432 30 30v107.574l8.788-8.788c5.856-5.856 13.534-8.786 21.212-8.786s15.356 2.93 21.212 8.786c11.716 11.716 11.716 30.71 0 42.426zM332 360c-16.542 0-30 13.458-30 30s13.458 30 30 30 30-13.458 30-30-13.458-30-30-30zM934 960h-844c-49.626 0-90-40.374-90-90 0-39.11 25.082-72.456 60-84.84v-515.16c0-49.626 40.374-90 90-90h332v-69.16c-34.918-12.384-60-45.73-60-84.84 0-49.626 40.374-90 90-90s90 40.374 90 90c0 39.11-25.082 72.456-60 84.84v69.16h332c49.626 0 90 40.374 90 90v515.16c34.918 12.384 60 45.73 60 84.84 0 49.626-40.374 90-90 90zM512-4c-16.542 0-30 13.458-30 30s13.458 30 30 30 30-13.458 30-30-13.458-30-30-30zM904 270c0-16.542-13.458-30-30-30h-724c-16.542 0-30 13.458-30 30v510h784v-510zM934 840h-844c-16.542 0-30 13.458-30 30s13.458 30 30 30h844c16.542 0 30-13.458 30-30s-13.458-30-30-30z" />
<glyph unicode="&#xe908;" glyph-name="employee-2" d="M934 116h-335.676c-11.084 99.804-76.782 183.36-166.456 220.028 29.576 27.416 48.132 66.56 48.132 109.972 0 82.71-67.29 150-150 150s-150-67.29-150-150c0-43.412 18.556-82.556 48.132-109.972-91.094-37.25-157.448-122.884-166.942-224.786-35.534-12.042-61.19-45.692-61.19-85.242v-60c0-16.568 13.432-30 30-30h964c16.568 0 30 13.432 30 30v60c0 49.626-40.374 90-90 90zM330 536c49.626 0 90-40.374 90-90s-40.374-90-90-90-90 40.374-90 90 40.374 90 90 90zM330 296c105.61 0 193.262-78.366 207.864-180h-415.728c14.602 101.634 102.254 180 207.864 180zM964-4h-904v30c0 16.542 13.458 30 30 30 8.582 0 820.654 0 844 0 16.542 0 30-13.458 30-30v-30zM752 960c-149.018 0-272-122.452-272-272 0-72.12 28.44-140.278 80.080-191.918 51.642-51.642 119.8-80.082 191.92-80.082s140.278 28.44 191.92 80.082c51.64 51.64 80.080 119.798 80.080 191.918 0 149.634-123.064 272-272 272zM752 476c-116.896 0-212 95.104-212 212s95.104 212 212 212 212-95.104 212-212-95.104-212-212-212zM874 718h-92v90c0 16.568-13.432 30-30 30s-30-13.432-30-30v-120c0-16.568 13.432-30 30-30h122c16.568 0 30 13.432 30 30s-13.432 30-30 30z" />
<glyph unicode="&#xe909;" glyph-name="puzzle" d="M934 960h-422c-16.568 0-30-13.432-30-30v-125.798c-9.716 2.504-19.792 3.798-30 3.798-66.168 0-120-53.832-120-120s53.832-120 120-120c10.208 0 20.284 1.294 30 3.798v-93.798h-142.97c-11.836 0-22.564-6.958-27.392-17.766-4.826-10.806-2.848-23.44 5.050-32.254 9.874-11.020 15.312-25.22 15.312-39.98 0-33.084-26.916-60-60-60s-60 26.916-60 60c0 14.76 5.438 28.96 15.312 39.98 7.898 8.814 9.876 21.448 5.050 32.254-4.828 10.806-15.556 17.766-27.392 17.766h-174.97c-7.958 0-15.588-3.16-21.212-8.786-5.628-5.626-8.788-13.256-8.788-21.214v-422c0-49.626 40.374-90 90-90h844c49.626 0 90 40.374 90 90v844c0 49.626-40.374 90-90 90zM482 141.11v0c0-0.022 0-0.042 0-0.062 0-0.004 0-0.010 0-0.016 0-0.020 0-0.042 0-0.062v-144.97h-392c-16.542 0-30 13.458-30 30v392.2h95.808c-2.512-9.72-3.808-19.992-3.808-30.2 0-66.168 53.832-120 120-120s120 53.832 120 120c0 10.208-1.296 20.28-3.808 30h93.808c0-13.332 0-129.638 0-142.972v-0.002c0-26.086 30.916-39.47 50.020-22.34 11.022 9.876 25.218 15.314 39.98 15.314 33.084 0 60-26.916 60-60s-26.916-60-60-60c-14.73 0-28.9 5.416-39.91 15.252-19.108 17.24-49.968 3.842-50.090-22.142zM964 26c0-16.542-13.458-30-30-30h-392v95.81c9.72-2.512 19.792-3.81 30-3.81 66.168 0 120 53.832 120 120s-53.832 120-120 120c-10.208 0-20.28-1.296-30-3.81v93.81h142.97c11.836 0 22.564 6.958 27.392 17.766 4.826 10.806 2.848 23.44-5.050 32.254-9.874 11.020-15.312 25.22-15.312 39.98 0 33.084 26.916 60 60 60s60-26.916 60-60c0-14.76-5.438-28.96-15.312-39.98-7.898-8.814-9.876-21.448-5.050-32.254 4.828-10.806 15.556-17.766 27.392-17.766h144.97v-392zM964 478h-95.808c2.512 9.72 3.808 19.792 3.808 30 0 66.168-53.832 120-120 120s-120-53.832-120-120c0-10.208 1.296-20.28 3.808-30h-93.808v142.916c0 25.4-30.346 39.93-50.008 22.354-11.002-9.846-25.204-15.27-39.992-15.27-33.084 0-60 26.916-60 60s26.916 60 60 60c14.788 0 28.99-5.424 39.992-15.27 19.044-17.028 50.008-3.866 50.008 22.354v144.916h392c16.542 0 30-13.458 30-30v-392z" />
<glyph unicode="&#xe90a;" glyph-name="newspaper" d="M389.032 393.514c20.408 21.522 32.968 50.556 32.968 82.486 0 66.168-53.832 120-120 120-66.036 0-122-53.352-122-120 0-30.95 12.068-60.152 34.002-82.656-55.216-30.51-94.002-88.81-94.002-157.344v-30c0-16.568 13.432-30 30-30h302c16.568 0 30 13.432 30 30v30c0 67.704-37.58 126.788-92.968 157.514zM302 536c33.084 0 60-26.916 60-60s-26.916-60-60-60c-33.608 0-62 27.476-62 60s28.392 60 62 60zM180 236c0 66.168 54.728 120 122 120 66.168 0 120-53.832 120-120h-242zM994 596h-150v334c0 16.568-13.432 30-30 30h-784c-16.568 0-30-13.432-30-30v-844c0-82.71 67.29-150 150-150 24.952 0 716.498 0 754 0 66.168 0 120 53.832 120 120v510c0 16.568-13.432 30-30 30zM150-4c-49.626 0-90 40.374-90 90v814h724c0-23.498 0-796.368 0-814v-30c0-21.85 5.898-42.334 16.144-60h-650.144zM964 56c0-33.084-26.916-60-60-60s-60 26.916-60 60v480h120v-480zM694 236h-122c-16.568 0-30-13.432-30-30s13.432-30 30-30h122c16.568 0 30 13.432 30 30s-13.432 30-30 30zM694 116h-544c-16.568 0-30-13.432-30-30s13.432-30 30-30h544c16.568 0 30 13.432 30 30s-13.432 30-30 30zM694 596h-122c-16.568 0-30-13.432-30-30s13.432-30 30-30h122c16.568 0 30 13.432 30 30s-13.432 30-30 30zM694 476h-122c-16.568 0-30-13.432-30-30s13.432-30 30-30h122c16.568 0 30 13.432 30 30s-13.432 30-30 30zM694 356h-122c-16.568 0-30-13.432-30-30s13.432-30 30-30h122c16.568 0 30 13.432 30 30s-13.432 30-30 30zM694 840h-544c-16.568 0-30-13.432-30-30v-122c0-16.568 13.432-30 30-30h544c16.568 0 30 13.432 30 30v122c0 16.568-13.432 30-30 30zM664 718h-484v62h484v-62z" />
<glyph unicode="&#xe90b;" glyph-name="mortarboard" d="M964 292.841v346.709l43.372 21.594c10.172 5.066 16.61 15.442 16.628 26.806 0.020 11.364-6.384 21.762-16.54 26.86l-481.999 242c-8.468 4.252-18.454 4.252-26.922 0l-481.999-242c-10.154-5.098-16.558-15.498-16.54-26.86s6.458-21.74 16.628-26.806l165.374-82.342v-250.802c0-9.114 4.142-17.732 11.26-23.426 90.124-72.1 203.678-111.808 319.739-111.808s229.616 39.708 319.739 111.808c7.118 5.694 11.26 14.312 11.26 23.426v251.798l60 29.876v-316.833c-34.918-12.384-60-45.73-60-84.84 0-23.034 8.708-44.064 22.99-60-14.282-15.936-22.99-36.966-22.99-60v-122c0-16.568 13.432-30 30-30h120c16.568 0 30 13.432 30 30v122c0 23.034-8.706 44.064-22.99 60 14.284 15.936 22.99 36.966 22.99 60 0 39.11-25.082 72.456-60 84.84zM784 342.713c-159.254-119.228-382.745-119.228-541.999 0v206.214l256.627-127.782c4.212-2.096 8.792-3.144 13.372-3.144s9.16 1.048 13.372 3.144l258.627 128.778v-207.21zM512.001 481.513c-21.538 10.724-400.955 199.646-414.917 206.598l414.917 208.32 414.917-208.32-414.917-206.598zM964-3.998h-60v92c0 16.542 13.458 30 30 30s30-13.458 30-30v-92zM934 178.002c-16.542 0-30 13.458-30 30s13.458 30 30 30 30-13.458 30-30-13.458-30-30-30zM512.001 778c-49.626 0-90-40.374-90-90s40.374-90 90-90 90 40.374 90 90-40.374 90-90 90zM512.001 658.001c-16.542 0-30 13.458-30 30s13.458 30 30 30 30-13.458 30-30-13.458-30-30-30z" />
<glyph unicode="&#xe90c;" glyph-name="boss" d="M934 360h-88.85l36.91 369.104c12.326 123.254-84.59 230.896-208.958 230.896h-322.204c-123.868 0-221.334-107.146-208.958-230.896l36.91-369.104h-88.85c-49.626 0-90-40.374-90-90 0-39.11 25.082-72.456 60-84.84v-219.16c0-16.568 13.432-30 30-30h844c16.568 0 30 13.432 30 30v219.16c34.918 12.384 60 45.73 60 84.84 0 49.626-40.374 90-90 90zM350.898 900h322.204c88.476 0 158.096-76.534 149.256-164.926l-37.508-375.074h-4.526c-11.086 99.804-76.784 183.358-166.458 220.028 29.576 27.416 48.134 66.56 48.134 109.972 0 82.71-67.29 150-150 150s-150-67.29-150-150c0-43.412 18.556-82.554 48.13-109.97-89.672-36.67-155.37-120.224-166.454-220.030h-4.526l-37.508 375.074c-8.804 88.040 60.422 164.926 149.256 164.926zM511.996 540c105.612 0 193.264-78.366 207.868-180h-415.728c14.602 101.632 102.252 180 207.86 180zM422 690c0 49.626 40.374 90 90 90s90-40.374 90-90-40.374-90-90-90-90 40.374-90 90zM904-4h-784v184h784v-184zM934 240h-844c-16.542 0-30 13.458-30 30s13.458 30 30 30c37.554 0 814.194 0 844 0 16.542 0 30-13.458 30-30s-13.458-30-30-30z" />
<glyph unicode="&#xe90d;" glyph-name="id-card" d="M389.028 273.515c20.408 21.522 32.968 50.556 32.968 82.486 0 66.168-53.832 120-120 120-66.036 0-122-53.352-122-120 0-30.95 12.068-60.152 34.002-82.656-55.216-30.51-94.002-88.81-94.002-157.343v-30c0-16.568 13.432-30 30-30h301.999c16.568 0 30 13.432 30 30v30c0.002 67.702-37.578 126.786-92.968 157.513zM301.999 416c33.084 0 60-26.916 60-60s-26.916-60-60-60c-33.608 0-62 27.476-62 60s28.392 60 62 60zM179.999 116.001c0 66.168 54.728 120 122 120 66.168 0 120-53.832 120-120h-241.999zM873.997 657.999h-151.999v30c0 16.568-13.432 30-30 30h-95.14c-2.518 7.104-5.92 13.792-10.046 19.954l129.277 174.165c9.876 13.304 7.096 32.094-6.208 41.97-13.308 9.876-32.096 7.094-41.97-6.208l-129.127-173.963c-8.464 2.644-17.456 4.084-26.782 4.084s-18.316-1.44-26.782-4.084l-129.133 173.961c-9.876 13.304-28.668 16.082-41.97 6.208-13.304-9.876-16.084-28.666-6.208-41.97l129.277-174.165c-4.128-6.162-7.528-12.85-10.046-19.954h-95.14c-16.568 0-30-13.432-30-30v-30h-151.999c-82.926 0-149.999-69.068-149.999-151.999v-419.998c0-82.71 67.29-149.999 149.999-149.999h723.997c82.71 0 149.999 67.29 149.999 149.999v419.998c-0.002 82.928-67.072 152.001-150.001 152.001zM361.999 657.999h90c16.568 0 30 13.432 30 30 0 16.542 13.458 30 30 30s30-13.458 30-30c0-16.568 13.432-30 30-30h90v-30c0-16.542-13.458-30-30-30h-239.999c-16.542 0-30 13.458-30 30v30zM963.996 86.001c0-49.626-40.374-90-90-90h-723.997c-49.626 0-90 40.374-90 90v419.998c0 49.87 41.214 92 90 92h157.159c12.384-34.916 45.73-60 84.84-60h239.999c39.11 0 72.456 25.084 84.84 60h157.159c48.786 0 90-42.13 90-92v-419.998zM873.997 416h-301.999c-16.568 0-30-13.432-30-30s13.432-30 30-30h301.999c16.568 0 30 13.432 30 30s-13.432 30-30 30zM873.997 296.001h-301.999c-16.568 0-30-13.432-30-30s13.432-30 30-30h301.999c16.568 0 30 13.432 30 30s-13.432 30-30 30zM873.997 176.001h-301.999c-16.568 0-30-13.432-30-30s13.432-30 30-30h301.999c16.568 0 30 13.432 30 30s-13.432 30-30 30z" />
<glyph unicode="&#xe90e;" glyph-name="hierarchical-structure-1" d="M909.702 152.326c31.986 27.53 52.298 68.262 52.298 113.674 0 72.438-51.616 133.044-120 146.982v33.018c0 49.626-40.374 90-90 90h-210v106.59l48.418-25.454c10.202-5.362 22.438-4.368 31.594 2.284 9.238 6.712 13.866 18.086 11.936 29.342l-14.976 87.32 63.442 61.84c8.176 7.97 11.12 19.892 7.59 30.752s-12.916 18.776-24.216 20.418l-87.516 12.716-39.26 81.244c-5.008 10.364-15.502 16.948-27.012 16.948s-22.004-6.584-27.012-16.948l-39.258-81.244-87.516-12.716c-11.3-1.642-20.688-9.558-24.216-20.418s-0.586-22.782 7.59-30.752l63.442-61.84-14.976-87.32c-1.93-11.254 2.698-22.63 11.936-29.342 9.234-6.71 21.48-7.598 31.594-2.284l48.416 25.454v-106.59h-210c-49.626 0-90-40.374-90-90v-32.968c-67.798-13.548-122-73.324-122-147.032 0-43.508 18.92-84.644 53.698-113.988-67.53-35.16-113.698-105.34-113.698-186.012 0-16.568 13.432-30 30-30 5.222 0 943.752 0 964 0 16.568 0 30 13.432 30 30 0 80.91-46.44 151.27-114.298 186.326zM902 266c0-49.626-40.374-90-90-90s-90 40.374-90 90 40.374 90 90 90 90-40.374 90-90zM459.468 698.528l7.368 42.954c1.666 9.732-1.56 19.662-8.63 26.554l-31.208 30.42 43.126 6.266c9.858 1.432 18.364 7.666 22.698 16.636l19.178 39.688 19.178-39.688c4.334-8.97 12.84-15.204 22.698-16.636l43.126-6.266-31.208-30.42c-7.070-6.892-10.296-16.822-8.626-26.554l7.368-42.954-38.574 20.28c-4.372 2.298-9.166 3.446-13.96 3.446s-9.59-1.148-13.96-3.446l-38.574-20.28zM512 356c49.626 0 90-40.374 90-90s-40.374-90-90-90-90 40.374-90 90 40.374 90 90 90zM212 356c49.626 0 90-40.374 90-90s-40.374-90-90-90c-49.87 0-92 41.214-92 90s42.13 90 92 90zM304.152-4h-241.098c14.124 68.382 75.544 120 148.946 120 44.24 0 85.68-19.36 114.032-52.542-10.892-20.702-18.428-43.428-21.88-67.458zM309.41 152.074c32.154 27.532 52.59 68.376 52.59 113.926 0 72.438-51.616 133.044-120 146.982v33.018c0 16.542 13.458 30 30 30h210v-63.018c-68.384-13.936-120-74.542-120-146.982 0-45.578 20.46-86.444 52.646-113.976-19.526-10.26-37.246-23.502-52.556-39.122-15.494 15.848-33.294 29.022-52.68 39.172zM365.014-4c13.94 68.382 74.548 120 146.986 120s133.046-51.618 146.986-120c-12.398 0-284.122 0-293.972 0zM609.354 152.024c32.186 27.532 52.646 68.398 52.646 113.976 0 72.438-51.616 133.044-120 146.982v63.018h210c16.542 0 30-13.458 30-30v-33.018c-68.384-13.936-120-74.542-120-146.982 0-45.55 20.436-86.394 52.59-113.926-19.388-10.15-37.186-23.324-52.68-39.172-15.31 15.62-33.028 28.862-52.556 39.122zM719.848-4c-3.452 24.032-10.988 46.758-21.88 67.458 28.352 33.182 69.792 52.542 114.032 52.542 73.402 0 134.822-51.618 148.946-120h-241.098z" />
<glyph unicode="&#xe90f;" glyph-name="pie-chart" d="M451.999 960c-248.432 0-451.999-203.636-451.999-451.999 0-248.232 203.456-449.999 451.999-449.999 16.568 0 30 13.432 30 30v389.999h390.001c16.568 0 30 13.432 30 30 0 248.318-201.534 451.999-450.001 451.999zM451.999 538.001c-16.568 0-30-13.432-30-30v-388.869c-202.188 15.294-361.999 183.864-361.999 388.869 0 216.148 175.85 391.999 391.999 391.999 205.006 0 373.575-159.812 388.871-361.999h-388.871zM994 418.001h-422.001c-16.568 0-30-13.432-30-30v-421.999c0-16.568 13.432-30 30-30 248.43 0 452.001 203.632 452.001 451.999 0 16.568-13.432 30-30 30zM601.999-2.862v361.063h360.865c-14.62-192.286-168.58-346.443-360.865-361.063z" />
<glyph unicode="&#xe910;" glyph-name="interview" d="M854.094 216.244c29.442 27.404 47.906 66.456 47.906 109.756 0 82.71-67.29 150-150 150s-150-67.29-150-150c0-10.272 1.042-20.304 3.018-30h-4.694c-11.084 99.804-76.782 183.36-166.456 220.028 29.576 27.416 48.132 66.56 48.132 109.972 0 82.71-67.29 150-150 150s-150-67.29-150-150c0-43.3 18.464-82.352 47.906-109.756-92.040-37.136-159.124-122.902-168.708-224.998-35.538-12.040-61.198-45.692-61.198-85.246v-240c0-16.568 13.432-30 30-30 20.864 0 943.136 0 964 0 16.568 0 30 13.432 30 30 0 113.054-70.37 210.084-169.906 250.244zM752 416c49.626 0 90-40.374 90-90s-40.374-90-90-90-90 40.374-90 90 40.374 90 90 90zM332 716c49.626 0 90-40.374 90-90s-40.374-90-90-90-90 40.374-90 90 40.374 90 90 90zM332 476c105.61 0 193.262-78.366 207.864-180h-417.708c14.74 101.634 103.228 180 209.844 180zM60 206c0 16.542 13.458 30 30 30 22.358 0 518.61 0 542.082 0 5.41-7.19 11.462-13.864 18.050-19.972-24.55-10.038-47.3-23.588-67.628-40.028h-522.504v30zM483.676-4h-423.676v120.2h467.612c-23.528-35.082-39.044-76.16-43.936-120.2zM544.136-4c14.602 101.634 102.254 180 207.864 180 106.616 0 195.104-78.366 209.844-180h-417.708zM934 960h-302c-49.626 0-90-40.374-90-90v-124c0-39.112 25.078-72.478 60-84.86v-95.14c0-12.134 7.308-23.074 18.52-27.716 11.208-4.644 24.114-2.078 32.694 6.502l111.212 111.214h169.574c49.626 0 90 40.374 90 90v124c0 49.626-40.374 90-90 90zM964 746c0-16.542-13.458-30-30-30h-182c-7.958 0-15.588-3.16-21.212-8.786l-68.788-68.788v47.574c0 16.568-13.432 30-30 30-16.542 0-30 13.458-30 30v124c0 16.542 13.458 30 30 30h302c16.542 0 30-13.458 30-30v-124z" />
<glyph unicode="&#xe911;" glyph-name="employee-1" d="M809.666 364.67c58.404 50.906 92.334 124.41 92.334 203.33 0 16.568-13.432 30-30 30s-30-13.432-30-30c0-16.542-13.458-30-30-30s-30 13.458-30 30v120c0 149.982-121.122 272-270 272s-270-122.018-270-272c0 0 0.126 3.756 0.126-120 0-16.542-13.458-30-30-30s-30 13.458-30 30c0 16.568-13.432 30-30 30s-30-13.432-30-30c0-78.886 33.906-152.368 92.27-203.274-93.39-82.882-152.396-204.004-152.396-338.726 0-49.626 40.374-90 90-90h720c49.626 0 90 40.374 90 90 0 134.692-58.978 255.79-152.334 338.67zM812 478c3.422 0 6.796 0.192 10.122 0.566-13.886-29.55-34.686-55.706-61.118-76.262-33.97 22.754-71.18 40.984-110.774 53.852 31.5 18.852 58.854 43.936 80.354 73.54 14.414-30.522 45.482-51.696 81.416-51.696zM392 358l-24.17 32.228c44.62 17.906 93.268 27.772 144.17 27.772s99.55-9.866 144.17-27.772l-24.17-32.228h-240zM587 298l-75-100-75 100h150zM512 900c115.794 0 210-95.104 210-212 0-9.64-0.666-19.126-1.932-28.426-99.034 9.586-189.014 63.53-244.21 147.668-6.84 10.43-19.432 15.538-31.6 12.828-12.176-2.71-21.406-12.67-23.18-25.018-6.308-43.926-44.606-77.052-89.078-77.052-9.29 0-18.48 1.468-27.246 4.244 16.264 100.67 102.998 177.756 207.246 177.756zM332 658c36.304 0 71.342 13.142 98.656 37.006 11.524 10.068 21.35 21.748 29.224 34.578 62.72-70.87 149.166-116.682 243.258-128.53-33.12-72.526-106.336-123.054-191.138-123.054-106.54 0-194.796 79.75-208.226 182.688 9.268-1.772 18.72-2.688 28.226-2.688zM202.008 478.566c3.32-0.374 6.7-0.566 10.12-0.566 35.892 0 66.932 21.124 81.37 51.588 21.488-29.558 48.812-54.604 80.274-73.432-39.568-12.86-76.754-31.074-110.708-53.806-26.404 20.548-47.18 46.686-61.056 76.216zM872-4h-720c-16.542 0-30 13.458-30 30 0 143.202 76.806 268.694 191.174 337.102l174.826-233.102c5.666-7.554 14.556-12 24-12s18.334 4.446 24 12l174.826 233.102c114.368-68.408 191.174-193.9 191.174-337.102 0-16.542-13.458-30-30-30z" />
<glyph unicode="&#xe912;" glyph-name="idea" d="M865.642 669.148c-29.588 158.6-170.19 291.166-353.592 290.852-199.472-0.342-360.040-161.090-360.040-359.928 0-116.332 55.328-220.886 142.842-287.17 22.584-17.106 37.178-47.064 37.178-76.316v-90.564c0-39.114 25.084-72.464 60.006-84.85v-5.16c0-66.176 53.838-120.014 120.014-120.014s120.014 53.838 120.014 120.014v5.16c34.922 12.386 60.006 45.734 60.006 84.85v90.262c0 29.224 15.256 59.8 38.864 77.9 108.426 83.13 160.042 219.142 134.708 354.964zM512.050-3.994c-33.088 0-60.006 27.12-60.006 60.206h120.014c-0.002-33.088-26.92-60.206-60.008-60.206zM632.062 146.022c0-16.544-13.46-30.004-30.004-30.004h-180.020c-16.544 0-30.004 13.46-30.004 30.004v30.004h240.026v-30.004zM694.422 361.806c-38.462-29.492-62.358-77.588-62.358-125.522v-0.252h-240.028v0.554c0 48.1-23.356 95.67-60.954 124.15-75.668 57.312-119.066 144.546-119.066 239.336 0 165.806 133.948 299.908 300.75 299.908 152.286 0 269.224-109.648 293.882-241.836 21.172-113.484-21.832-227.034-112.226-296.338zM599.090 637.59c20.41 21.524 32.972 50.562 32.972 82.494 0 66.176-53.838 120.014-120.014 120.014s-120.014-53.838-120.014-120.014c0-31.934 12.562-60.97 32.972-82.494-55.396-30.73-92.978-89.82-92.978-157.532v-30.004c0-16.57 13.434-30.004 30.004-30.004h300.032c16.57 0 30.004 13.434 30.004 30.004v30.004c0.002 67.712-37.584 126.802-92.978 157.532zM512.050 780.092c33.088 0 60.006-26.918 60.006-60.006s-26.918-60.006-60.006-60.006-60.006 26.918-60.006 60.006c-0.002 33.086 26.918 60.006 60.006 60.006zM392.036 480.058c0 66.176 53.838 120.014 120.014 120.014s120.014-53.838 120.014-120.014h-240.028z" />
<glyph unicode="&#xe913;" glyph-name="rating" d="M943.916 157.919c-26.286 26.286-56.856 46.544-90.044 60.116 29.57 27.416 48.124 66.556 48.124 109.964 0 82.71-67.29 149.999-149.999 149.999s-149.999-67.29-149.999-149.999c0-43.466 18.602-82.654 48.24-110.074-59.71-24.566-108.806-70.064-138.239-127.406-29.434 57.342-78.53 102.838-138.239 127.406 29.638 27.42 48.24 66.61 48.24 110.074 0 82.71-67.29 149.999-149.999 149.999s-149.999-67.29-149.999-149.999c0-43.408 18.554-82.55 48.124-109.964-33.188-13.572-63.758-33.832-90.044-60.116-51.64-51.642-80.080-119.8-80.080-191.917 0-16.568 13.43-30 30-30 20.864 0 943.132 0 963.996 0 16.568 0 30 13.432 30 30 0 72.12-28.44 140.277-80.080 191.917zM271.999 418c49.626 0 90-40.374 90-90s-40.374-90-90-90c-49.626 0-90 40.374-90 90s40.374 90 90 90zM62.114-3.998c14.618 102.742 103.17 181.999 209.885 181.999 105.708 0 193.425-79.258 207.903-181.999h-417.788zM751.997 418c49.626 0 90-40.374 90-90s-40.374-90-90-90-90 40.374-90 90 40.374 90 90 90zM544.092-3.998c14.48 102.742 102.196 181.999 207.905 181.999 106.714 0 195.267-79.258 209.883-181.999h-417.788zM690.001 828.671c-3.53 10.86-12.916 18.776-24.216 20.418l-87.516 12.716-39.26 81.246c-5.008 10.364-15.502 16.948-27.012 16.948s-22.004-6.584-27.012-16.948l-39.258-81.244-87.516-12.716c-11.3-1.642-20.688-9.558-24.216-20.418-3.53-10.86-0.586-22.782 7.59-30.752l63.44-61.842-14.976-87.32c-1.93-11.254 2.698-22.63 11.936-29.342 9.234-6.71 21.484-7.598 31.594-2.284l78.418 41.226 78.418-41.226c10.19-5.356 22.428-4.376 31.594 2.284 9.238 6.712 13.866 18.086 11.936 29.342l-14.976 87.32 63.442 61.84c8.176 7.97 11.12 19.892 7.59 30.752zM565.792 768.037c-7.070-6.892-10.296-16.822-8.626-26.554l7.368-42.952-38.574 20.28c-4.372 2.298-9.166 3.446-13.96 3.446s-9.59-1.148-13.96-3.446l-38.574-20.28 7.368 42.952c1.67 9.732-1.556 19.662-8.626 26.554l-31.212 30.418 43.126 6.268c9.858 1.432 18.364 7.666 22.698 16.636l19.178 39.688 19.178-39.688c4.334-8.97 12.84-15.204 22.698-16.636l43.126-6.266-31.208-30.42zM359.473 708.671c-3.53 10.86-12.916 18.776-24.216 20.418l-87.674 12.74-39.208 79.446c-5.054 10.24-15.482 16.722-26.902 16.722s-21.848-6.482-26.902-16.722l-39.186-79.4-89.618-12.774c-11.388-1.624-20.848-9.618-24.346-20.58-3.498-10.96-0.42-22.956 7.926-30.878l65.11-61.812-14.934-87.070c-1.93-11.254 2.698-22.63 11.936-29.342s21.48-7.598 31.594-2.284l78.416 41.226 78.418-41.228c10.17-5.344 22.41-4.388 31.594 2.284 9.238 6.712 13.866 18.086 11.936 29.342l-14.976 87.32 63.442 61.84c8.176 7.97 11.12 19.892 7.59 30.752zM235.263 648.035c-7.070-6.892-10.296-16.822-8.626-26.554l7.368-42.952-38.574 20.28c-4.372 2.298-9.166 3.446-13.96 3.446s-9.59-1.148-13.96-3.446l-38.572-20.28 7.368 42.952c1.694 9.87-1.65 19.934-8.914 26.828l-31.754 30.146 43.874 6.256c9.802 1.398 18.286 7.542 22.668 16.422l19.288 39.080 19.288-39.080c4.37-8.854 12.816-14.992 22.588-16.412l43.126-6.266-31.208-30.42zM1022.578 708.527c-3.498 10.96-12.958 18.956-24.346 20.58l-89.618 12.774-39.186 79.4c-5.054 10.24-15.482 16.722-26.902 16.722s-21.848-6.482-26.902-16.722l-39.208-79.446-87.674-12.74c-11.304-1.646-20.69-9.562-24.22-20.422s-0.586-22.782 7.59-30.752l63.442-61.84-14.976-87.32c-1.93-11.254 2.698-22.63 11.936-29.342 9.22-6.7 21.468-7.606 31.594-2.284l78.418 41.228 78.416-41.226c10.11-5.314 22.358-4.428 31.594 2.284 9.238 6.712 13.866 18.086 11.936 29.342l-14.934 87.070 65.114 61.816c8.346 7.922 11.424 19.916 7.926 30.878zM896.606 648.313c-7.264-6.894-10.608-16.958-8.914-26.828l7.368-42.952-38.572 20.28c-8.742 4.596-19.18 4.594-27.922 0l-38.574-20.28 7.368 42.952c1.67 9.732-1.556 19.662-8.626 26.554l-31.208 30.42 43.124 6.264c9.772 1.42 18.218 7.556 22.588 16.412l19.288 39.080 19.288-39.080c4.382-8.88 12.866-15.026 22.668-16.422l43.878-6.254-31.754-30.146z" />
<glyph unicode="&#xe914;" glyph-name="binoculars" d="M958.258 112.654l-47.776 191.104c31.494 14.026 53.516 45.602 53.516 82.244v244c0 49.626-40.374 90-90 90h-30v65.16c34.918 12.384 60 45.73 60 84.84 0 49.626-40.374 90-90 90h-120c-49.626 0-90-40.374-90-90 0-39.11 25.082-72.456 60-84.84v-65.16h-30c-39.11 0-72.456-25.084-84.84-60h-74.32c-12.384 34.916-45.73 60-84.84 60h-30v65.16c34.918 12.384 60 45.73 60 84.84 0 49.626-40.374 90-90 90h-120c-49.626 0-90-40.376-90-90 0-39.11 25.082-72.456 60-84.84v-65.16h-30c-49.626 0-90-40.374-90-90v-244c0-36.642 22.022-68.216 53.516-82.244l-47.776-191.106c-37.876-10.618-65.74-45.432-65.74-86.65 0-49.626 40.374-90 90-90h299.999c49.626 0 90 40.374 90 90 0 39.11-25.082 72.456-60 84.84v190.32c25.528 9.054 45.786 29.312 54.84 54.84h74.322c9.054-25.528 29.312-45.786 54.84-54.84v-190.32c-34.918-12.384-60-45.73-60-84.84 0-49.626 40.374-90 90-90h299.999c49.626 0 90 40.374 90 90-0.002 41.218-27.866 76.032-65.742 86.652zM210 900h120c16.542 0 30-13.458 30-30s-13.458-30-30-30h-120c-16.542 0-30 13.458-30 30s13.458 30 30 30zM299.999 780v-60h-60v60h60zM389.999-3.998h-299.999c-16.542 0-30 13.458-30 30 0 16.516 13.418 29.956 29.924 29.996 0.032 0 0.066-0.002 0.098-0.002 0.054 0 0.108 0.006 0.162 0.006h299.815c16.542 0 30-13.458 30-30s-13.458-30-30-30zM128.424 116.002l45 180h186.576v-180h-231.576zM419.999 386.001c0-16.542-13.458-30-30-30h-240c-16.542 0-30 13.458-30 30v244c0 16.542 13.458 30 30 30 25.604 0 214.412 0 240 0 16.542 0 30-13.458 30-30v-244zM543.999 416.001h-64v184h64v-184zM693.999 900h120c16.542 0 30-13.458 30-30s-13.458-30-30-30h-120c-16.542 0-30 13.458-30 30s13.458 30 30 30zM783.998 780v-60h-60v60h60zM603.999 386.001v244c0 16.542 13.458 30 30 30 25.604 0 214.412 0 240 0 16.542 0 30-13.458 30-30v-244c0-16.542-13.458-30-30-30h-240c-16.542 0-30 13.458-30 30zM895.576 116.002h-231.578v180h186.576l45.002-180zM933.998-3.998h-299.999c-16.542 0-30 13.458-30 30s13.458 30 30 30h299.813c0.054 0 0.108-0.006 0.162-0.006 0.032 0 0.066 0.002 0.1 0.002 16.508-0.040 29.924-13.48 29.924-29.996 0-16.542-13.458-30-30-30z" />
<glyph unicode="&#xe915;" glyph-name="goal" d="M1018.96 344.641l-108.966 163.452 109.050 165.394c6.076 9.214 6.602 21.020 1.37 30.736-5.234 9.718-15.378 15.778-26.416 15.778h-269.999v90c0 49.626-40.374 90-90 90h-339.159c-12.384 34.916-45.73 60-84.84 60-49.626 0-90-40.374-90-90v-873.998h-90c-16.568 0-30-13.432-30-30s13.432-30 30-30c11.898 0 341.445 0 359.999 0 16.568 0 30 13.432 30 30s-13.432 30-30 30h-90v421.999h363.999v-30c0-49.626 40.374-90 90-90h240c11.064 0 21.23 6.090 26.452 15.844 5.218 9.754 4.646 21.592-1.49 30.796zM240 448.001v-451.999h-60v873.998c0 16.542 13.458 30 30 30s30-13.458 30-30v-421.999zM663.999 478.001h-363.999v361.999h333.999c16.542 0 30-13.458 30-30 0-7.632 0-317.239 0-331.999zM753.999 358.001c-16.542 0-30 13.458-30 30 0 7.256 0 264.991 0 271.999h214.286l-89.33-135.486c-6.636-10.064-6.604-23.124 0.084-33.154l88.906-133.36h-183.946z" />
<glyph unicode="&#xe916;" glyph-name="target-1" d="M634.001 715.998c-96.748 0-185.37-35.424-253.606-93.966l-76.394 76.392v107.574c0 7.786-3.028 15.268-8.442 20.862l-120 124c-8.5 8.784-21.48 11.536-32.81 6.948-11.332-4.584-18.748-15.586-18.748-27.81v-94h-94c-12.224 0-23.224-7.416-27.81-18.748s-1.836-24.31 6.948-32.81l124-120c5.594-5.416 13.076-8.442 20.862-8.442h107.574l76.394-76.392c-58.542-68.238-93.968-156.86-93.968-253.608 0-215.046 174.954-389.999 389.999-389.999s389.999 174.954 389.999 389.999-174.954 389.999-389.999 389.999zM244.002 715.998h-77.86l-62 60h49.86c16.568 0 30 13.432 30 30v49.86l60-62v-77.86zM634.001-4c-181.962 0-329.999 148.038-329.999 329.999 0 80.204 28.772 153.804 76.52 211.054l42.622-42.622c-36.986-46.208-59.142-104.778-59.142-168.432 0-148.878 121.122-269.999 269.999-269.999s269.999 121.122 269.999 269.999-121.122 269.999-269.999 269.999c-63.654 0-122.224-22.156-168.432-59.142l-42.622 42.622c57.25 47.748 130.852 76.52 211.054 76.52 181.962 0 329.999-148.038 329.999-329.999s-148.038-329.999-329.999-329.999zM633.999 175.998c82.71 0 150 67.29 150 150s-67.29 150-150 150c-30.528 0-58.94-9.188-82.66-24.916l-43.040 43.040c35.070 26.286 78.598 41.876 125.698 41.876 115.794 0 210-94.206 210-210s-94.206-210-210-210c-115.794 0-210 94.206-210 210 0 47.1 15.588 90.628 41.876 125.7l43.042-43.040c-15.726-23.718-24.916-52.13-24.916-82.66 0-82.71 67.29-150 150-150zM655.213 347.211l-59.992 59.992c11.75 5.632 24.902 8.794 38.778 8.794 49.626 0 90-40.374 90-90s-40.374-90-90-90-90 40.374-90 90c0 13.876 3.162 27.030 8.796 38.778l59.992-59.99c11.714-11.716 30.712-11.716 42.426 0 11.716 11.716 11.716 30.71 0 42.426z" />
<glyph unicode="&#xe917;" glyph-name="briefcase" d="M874 718c-20.466 0-71.322 0-92 0v92c0 82.71-67.29 150-150 150h-242c-82.71 0-150-67.29-150-150v-92c-28.122 0-11.046 0-90 0-82.71 0-150-67.29-150-150v-120c0-39.11 25.082-72.456 60-84.84v-337.16c0-49.626 40.374-90 90-90h724c49.626 0 90 40.374 90 90v337.16c34.918 12.384 60 45.73 60 84.84v120c0 82.71-67.29 150-150 150zM782 658v-180h-60v180h60zM722 358v60h60v-60h-60zM782 298v-90c0-16.542-13.458-30-30-30s-30 13.458-30 30v90h60zM300 810c0 49.626 40.374 90 90 90h242c49.626 0 90-40.374 90-90v-92c-21.712 0-38.288 0-60 0v92c0 16.568-13.432 30-30 30h-242c-16.568 0-30-13.432-30-30v-92c-21.712 0-38.288 0-60 0v92zM662 658c0-8.59 0-231.136 0-240h-302c0 8.864 0 231.414 0 240h302zM420 718v62h182v-62h-182zM240 658h60v-180h-60v180zM240 418h60v-60h-60v60zM240 298h60v-90c0-16.542-13.458-30-30-30s-30 13.458-30 30v90zM60 448v120c0 49.626 40.374 90 90 90h30c0-8.59 0-231.136 0-240h-90c-16.542 0-30 13.458-30 30zM904 26c0-16.542-13.458-30-30-30h-724c-16.542 0-30 13.458-30 30v332h60c0-14.86 0-134.328 0-150 0-49.626 40.374-90 90-90s90 40.374 90 90c0 15.672 0 135.132 0 150h302c0-14.86 0-134.328 0-150 0-49.626 40.374-90 90-90s90 40.374 90 90c0 15.672 0 135.132 0 150h62v-332zM964 448c0-16.542-13.458-30-30-30h-92c0 8.864 0 231.414 0 240h32c49.626 0 90-40.374 90-90v-120z" />
<glyph unicode="&#xe918;" glyph-name="video-call" d="M812 840h-240c-49.734 0-92-40.192-92-90v-120c0-24.178 9.888-46.948 27.842-64.112 9.926-9.486 21.568-16.552 34.158-20.884v-35.004c0-10.398 5.384-20.054 14.228-25.52 8.83-5.456 19.868-5.972 29.188-1.314l113.666 56.834h112.918c23.908 0 46.694 9.194 64.156 25.888 17.956 17.164 27.844 39.934 27.844 64.112v120c0 49.742-42.192 90-92 90zM844 630c0-15.982-14.954-30-32-30h-120c-4.658 0-9.25-1.084-13.416-3.166l-76.584-38.292v11.458c0 16.568-13.432 30-30 30-17.046 0-32 14.018-32 30v120c0 15.982 14.954 30 32 30h240c17.046 0 32-14.018 32-30v-120zM934 960h-844c-49.626 0-90-40.374-90-90v-662c0-49.626 40.374-90 90-90h270v-122h-90c-16.568 0-30-13.432-30-30s13.432-30 30-30c12.668 0 449.752 0 482 0 16.568 0 30 13.432 30 30s-13.432 30-30 30h-90v122h272c49.626 0 90 40.374 90 90v662c0 49.626-40.374 90-90 90zM602-4h-182v122h182v-122zM964 208c0-16.542-13.458-30-30-30-44.78 0-797.88 0-844 0-16.542 0-30 13.458-30 30v30c14.57 0 870.052 0 904 0v-30zM300 420c66.168 0 120-54.728 120-122h-240c0 67.272 53.832 122 120 122zM240 540c0 33.084 26.916 60 60 60s60-26.916 60-60-26.916-60-60-60-60 26.916-60 60zM964 298h-484c0 67.89-37.35 127.834-93.2 159.27 20.544 21.546 33.2 50.68 33.2 82.73 0 66.168-53.832 120-120 120s-120-53.832-120-120c0-32.050 12.656-61.184 33.2-82.73-54.374-30.606-93.2-89.732-93.2-159.27h-60v572c0 16.542 13.458 30 30 30h844c16.542 0 30-13.458 30-30v-572z" />
<glyph unicode="&#xe919;" glyph-name="employee" d="M1019.344 626.481c-15.832 47.608-67.052 72.64-113.73 56.982l-108.030-35.46-21.252 42.526c54.518 11.298 95.622 59.692 95.622 117.508 0 66.17-53.834 120.004-120.004 120.004s-120.004-53.834-120.004-120.004c0-21.85 5.898-42.336 16.144-60.002h-196.152c-24.034 0-46.636-9.364-63.636-26.366l-120.004-120.004c-7.598-7.598-13.544-16.23-17.852-25.444l-71.944 71.942c-11.714 11.716-30.712 11.716-42.428 0l-127.284-127.286c-11.716-11.716-11.716-30.712 0-42.428l220.94-220.94c-35.658-18.932-55.33-60.414-45.116-101.35 12.132-48.426 61.124-77.544 109.154-65.468l240.018 60.004c29.978 7.504 53.728 29.494 63.54 58.844l13.954 41.864 37.696-37.696-42.416-127.222c-15.708-47.076 9.82-98.156 56.872-113.854 46.974-15.728 98.094 9.48 113.9 56.902l60.006 180.016c10.846 32.588 2.504 67.884-21.774 92.118l-134.11 134.112 15.482 30.968c24.066-18.614 55.462-23.406 83.388-14.14l182.108 60.036c47.166 15.734 72.66 66.646 56.912 113.838zM751.949 868.044c33.086 0 60.002-26.916 60.002-60.002s-26.916-60.002-60.002-60.002-60.002 26.916-60.002 60.002c-0.002 33.084 26.916 60.002 60.002 60.002zM72.43 499.669l84.858 84.856 212.14-212.14-84.856-84.856-212.142 212.14zM540.413 228.547c-3.274-9.794-11.198-17.136-21.188-19.636l-240.050-60.012c-15.98-4.014-32.31 5.69-36.35 21.822-4.010 16.068 5.776 32.4 21.82 36.408l208.074 52.004c9.952 2.488 17.944 9.888 21.188 19.622l22.5 67.532 47.438-47.438-23.432-70.302zM433.071 393.597l-62.908 62.908c9.32 4.378 17.91 10.386 25.408 17.886l93.64 93.838h57.1c-73.492-146.986-44.662-76.432-104.122-254.884l-62.584-15.642 53.466 53.466c11.716 11.716 11.716 30.712 0 42.428zM717.451 641.943l-99.33-198.664c-5.776-11.548-3.512-25.5 5.62-34.63l149.418-149.422c0.006-0.006 0.012-0.012 0.020-0.020 8.078-8.064 10.85-19.828 7.234-30.688l-60.002-180.006c-5.218-15.654-22.114-24.272-37.956-18.968-15.698 5.238-24.21 22.264-18.974 37.964l48.286 144.82c3.594 10.78 0.788 22.666-7.248 30.704l-153.786 153.786c-9.382 9.384-11.334 23.55-5.422 35.046l76.376 152.754c4.65 9.298 4.154 20.344-1.312 29.19-5.466 8.844-15.124 14.228-25.52 14.228h-118.070c-7.956 0-15.586-3.162-21.212-8.788l-102.426-102.426c-11.732-11.73-30.688-11.732-42.42 0-11.694 11.696-11.694 30.726 0 42.42l120.004 120.004c5.586 5.586 13.318 8.792 21.208 8.792h237.106c12.108-1.794 22.336-4.812 28.248-16 5.534-10.478 4.332-17.070 0.158-30.096zM943.548 569.597l-182.060-60.020c-13.834-4.59-28.996 1.228-35.982 14.302l34.034 68.066c7.742-9.066 20.374-12.894 32.15-9.030l132.828 43.598c15.718 5.278 32.648-3.184 37.91-18.992 5.288-15.858-3.416-32.762-18.88-37.924z" />
<glyph unicode="&#xe91a;" glyph-name="hiring-1" d="M751.038 637.52c20.408 21.522 32.968 50.556 32.968 82.484 0 66.166-53.83 119.998-119.998 119.998-66.166 0-119.998-53.83-119.998-119.998 0-31.93 12.56-60.962 32.968-82.484-55.388-30.726-92.966-89.808-92.966-157.51v-30c0-16.568 13.432-30 30-30h299.994c16.568 0 30 13.432 30 30v30c-0.002 67.702-37.582 126.784-92.968 157.51zM664.008 780.004c33.084 0 59.998-26.916 59.998-59.998 0-33.084-26.916-59.998-59.998-59.998-33.084 0-59.998 26.916-59.998 59.998s26.914 59.998 59.998 59.998zM544.010 480.010c0 66.166 53.83 119.998 119.998 119.998 66.166 0 119.998-53.83 119.998-119.998h-239.996zM664.008 960c-198.5 0-359.994-161.492-359.994-359.992 0-88.474 32.102-169.578 85.242-232.326l-58.852-58.852c-32.682 15.642-74.168 10.674-102.442-17.602l-201.576-201.576c-35.18-35.178-35.184-92.086 0-127.268 35.178-35.178 92.086-35.182 127.268 0.002 22.45 22.45 184.658 184.658 201.576 201.576 27.652 27.652 33.496 68.962 17.564 102.406l58.89 58.89c62.744-53.144 143.852-85.244 232.324-85.244 198.5 0 359.992 161.492 359.992 359.994s-161.492 359.992-359.992 359.992zM111.228 4.806c-11.732-11.73-30.684-11.732-42.418 0-11.73 11.736-11.732 30.688 0 42.42l132.786 132.784 42.418-42.418-132.786-132.786zM312.804 206.386l-26.366-26.366-42.418 42.416 26.366 26.366c11.72 11.722 30.694 11.722 42.416 0 0.002-0.002 0.004-0.002 0.006-0.004 11.69-11.694 11.688-30.72-0.004-42.412zM664.008 300.012c-165.416 0-299.994 134.578-299.994 299.994s134.576 299.996 299.994 299.996 299.994-134.578 299.994-299.994-134.578-299.996-299.994-299.996z" />
<glyph unicode="&#xe91b;" glyph-name="hiring" d="M872 658h-35.16c3.33 9.39 5.16 19.484 5.16 30 0 39.668-25.808 73.4-61.508 85.35-12.448 104.99-101.194 186.65-208.492 186.65h-120c-107.296 0-196.044-81.66-208.492-186.65-35.7-11.95-61.508-45.682-61.508-85.35 0-10.516 1.83-20.61 5.16-30h-35.16c-82.926 0-152-67.068-152-150v-422c0-40.076 16.044-77.83 45.176-106.306 28.826-28.176 66.764-43.694 106.824-43.694h720c82.924 0 152 67.068 152 150v422c0 82.924-69.068 150-152 150zM752 718c16.542 0 30-13.458 30-30s-13.458-30-30-30-30 13.458-30 30 13.458 30 30 30zM452 900h120c74.604 0 136.642-55.484 148.088-127.864-33.916-12.908-58.088-45.744-58.088-84.136 0-10.516 1.83-20.61 5.16-30h-310.32c3.33 9.39 5.16 19.484 5.16 30 0 38.392-24.172 71.228-58.088 84.136 11.446 72.38 73.484 127.864 148.088 127.864zM272 718c16.542 0 30-13.458 30-30s-13.458-30-30-30-30 13.458-30 30 13.458 30 30 30zM964 86c0-48.786-42.13-90-92-90h-720c-49.87 0-92 41.214-92 90v422c0 48.786 42.13 90 92 90h720c49.87 0 92-41.214 92-90v-422zM272 478h-60c-16.568 0-30-13.432-30-30s13.432-30 30-30h30v-210c0-16.542-13.458-30-30-30s-30 13.458-30 30c0 16.568-13.432 30-30 30s-30-13.432-30-30c0-49.626 40.374-90 90-90s90 40.374 90 90v240c0 16.568-13.432 30-30 30zM482 478c-66.168 0-120-53.832-120-120v-120c0-66.168 53.832-120 120-120s120 53.832 120 120v120c0 66.168-53.832 120-120 120zM542 238c0-33.084-26.916-60-60-60s-60 26.916-60 60v120c0 33.084 26.916 60 60 60s60-26.916 60-60v-120zM902 373c0 57.896-47.104 105-105 105h-105c-16.568 0-30-13.432-30-30 0-13.184 0-286.844 0-300 0-16.568 13.432-30 30-30h105c57.896 0 105 47.104 105 105 0 29.358-12.126 55.926-31.616 75 19.49 19.074 31.616 45.642 31.616 75zM797 178h-75v90h75c24.812 0 45-20.188 45-45s-20.188-45-45-45zM797 328h-75v90h75c24.812 0 45-20.188 45-45s-20.188-45-45-45z" />
<glyph unicode="&#xe91c;" glyph-name="salary" d="M512 536c-16.542 0-30 13.458-30 30 0 12.572 7.93 23.906 19.732 28.206 15.412 5.614 33.35-2 49.214-20.89 10.66-12.688 29.578-14.334 42.268-3.678 12.688 10.656 14.334 29.58 3.678 42.266-16.218 19.31-35.096 32.584-54.89 39.248v34.848c0 16.568-13.432 30-30 30s-30-13.432-30-30v-35.144c-0.268-0.094-0.536-0.176-0.802-0.274-35.41-12.896-59.2-46.888-59.2-84.582 0-49.626 40.374-90 90-90 16.542 0 30-13.458 30-30 0-12.084-7.19-22.936-18.32-27.65-13.432-5.686-29.51-0.834-44.116 13.318-11.9 11.528-30.892 11.228-42.42-0.672-11.53-11.9-11.228-30.892 0.67-42.422 13.544-13.122 28.602-22.392 44.186-27.626v-34.948c0-16.568 13.432-30 30-30s30 13.432 30 30v35.142c1.702 0.606 3.398 1.246 5.080 1.96 33.364 14.128 54.92 46.668 54.92 82.898 0 49.626-40.374 90-90 90zM993.164 546.594l-211.164 183.102v16.304c0 49.626-40.374 90-90 90h-31.306l-128.574 116.252c-11.424 10.33-28.816 10.33-40.24 0l-128.574-116.252h-31.306c-49.732 0-92-40.192-92-90v-16.386l-209.266-183.108c-19.584-17.136-30.734-41.994-30.734-67.732v-452.774c0-49.212 39.904-90 90-90h844c49.45 0 90 40.204 90 90v452.774c0 25.304-10.798 50.286-30.836 67.82zM782 650.278l160.208-138.914-160.208-89.732v228.646zM512 889.556l59.232-53.556h-118.462l59.23 53.556zM300 746c0 15.982 14.954 30 32 30h360c16.542 0 30-13.458 30-30v-357.974l-210-117.62-212 118.74v356.854zM240 649.888v-227.136l-158.272 88.648 158.272 138.488zM61.146 17.884c-0.728 2.586-1.146 5.3-1.146 8.116v428.8c10.668-5.976 359.454-201.33 390.608-218.78l-389.462-218.136zM144.856-4l367.144 205.636 367.144-205.636h-734.288zM964 26c0-2.816-0.418-5.53-1.146-8.116l-389.462 218.136 390.608 218.78v-428.8z" />
<glyph unicode="&#xe91d;" glyph-name="test" d="M694 838h-92v32c0 16.568-13.432 30-30 30h-95.14c-12.382 34.922-45.748 60-84.86 60s-72.478-25.078-84.86-60h-97.14c-16.568 0-30-13.432-30-30v-32h-90c-49.626 0-90-40.374-90-90v-722c0-49.626 40.374-90 90-90h604c49.626 0 90 40.374 90 90v722c0 49.626-40.374 90-90 90zM240 840h92c16.568 0 30 13.432 30 30 0 16.542 13.458 30 30 30s30-13.458 30-30c0-16.568 13.432-30 30-30h90v-32c0-16.542-13.458-30-30-30h-242c-16.542 0-30 13.458-30 30v32zM724 26c0-16.542-13.458-30-30-30h-604c-16.542 0-30 13.458-30 30v722c0 16.542 13.458 30 30 30h95.16c12.384-34.918 45.73-60 84.84-60h242c39.11 0 72.456 25.082 84.84 60h97.16c16.542 0 30-13.458 30-30v-722zM353.386 439.036c-11.616 11.812-30.612 11.97-42.424 0.35l-100.788-99.136-38.962 38.962c-11.714 11.716-30.71 11.716-42.426 0s-11.716-30.71 0-42.426l60.002-60c5.854-5.854 13.532-8.786 21.212-8.786 7.596 0 15.198 2.868 21.036 8.612l122 120c11.812 11.618 11.968 30.612 0.35 42.424zM353.386 229.036c-11.616 11.812-30.612 11.97-42.424 0.35l-100.788-99.136-38.962 38.962c-11.714 11.716-30.71 11.716-42.426 0s-11.716-30.71 0-42.426l60.002-60c5.854-5.854 13.532-8.786 21.212-8.786 7.596 0 15.198 2.868 21.036 8.612l122 120c11.812 11.618 11.968 30.612 0.35 42.424zM291.214 529.212l-38.788 38.788 38.786 38.786c11.716 11.716 11.716 30.71 0 42.426-11.714 11.716-30.71 11.716-42.426 0l-38.786-38.786-38.788 38.786c-11.714 11.716-30.71 11.716-42.426 0s-11.716-30.71 0-42.426l38.788-38.786-38.786-38.786c-11.716-11.716-11.716-30.712 0-42.428 11.714-11.714 30.71-11.716 42.426 0l38.786 38.788 38.788-38.788c11.714-11.714 30.71-11.716 42.426 0s11.716 30.71 0 42.426zM634 598h-182c-16.568 0-30-13.432-30-30s13.432-30 30-30h182c16.568 0 30 13.432 30 30s-13.432 30-30 30zM634 388h-182c-16.568 0-30-13.432-30-30s13.432-30 30-30h182c16.568 0 30 13.432 30 30s-13.432 30-30 30zM634 178h-182c-16.568 0-30-13.432-30-30s13.432-30 30-30h182c16.568 0 30 13.432 30 30s-13.432 30-30 30zM934 778c-49.626 0-90-40.374-90-90 0-19.084 0-460.224 0-480 0-3.228 0.578-6.572 1.508-9.394l60-182c4.054-12.296 15.542-20.606 28.492-20.606s24.438 8.31 28.492 20.606l60 182c1.008 3.064 1.508 6.464 1.508 9.394 0 19.744 0 460.838 0 480 0 49.626-40.374 90-90 90zM934 121.818l-24.776 75.152c7.584 3.848 16.024 5.884 24.776 5.884s17.192-2.036 24.776-5.884l-24.776-75.152zM964 258.884c-9.664 2.598-19.724 3.97-30 3.97s-20.336-1.37-30-3.968v279.114h60v-279.116zM964 598h-60v90c0 16.542 13.458 30 30 30s30-13.458 30-30v-90z" />
<glyph unicode="&#xe91e;" glyph-name="skills" d="M934 238h-424c-49.626 0-90-40.374-90-90s40.374-90 90-90h424c49.626 0 90 40.374 90 90s-40.374 90-90 90zM934 118h-424c-16.542 0-30 13.458-30 30s13.458 30 30 30h424c16.542 0 30-13.458 30-30s-13.458-30-30-30zM934 538h-424c-49.626 0-90-40.374-90-90s40.374-90 90-90h424c49.626 0 90 40.374 90 90s-40.374 90-90 90zM934 418h-424c-16.542 0-30 13.458-30 30s13.458 30 30 30h424c16.542 0 30-13.458 30-30s-13.458-30-30-30zM330 538c16.568 0 30 13.432 30 30v30c0 67.704-37.58 126.788-92.968 157.514 20.408 21.522 32.968 50.556 32.968 82.486 0 66.040-53.352 122-120 122-66.716 0-120-56.012-120-122 0-31.93 12.56-60.964 32.968-82.486-55.388-30.726-92.968-89.81-92.968-157.514v-30c0-16.568 13.432-30 30-30h30c0-31.93 12.56-60.964 32.968-82.486-55.388-30.726-92.968-89.81-92.968-157.514v-30c0-16.568 13.432-30 30-30h30c0-32.050 12.656-61.184 33.2-82.73-54.376-30.604-93.2-89.732-93.2-159.27v-30c0-16.568 13.432-30 30-30h300c16.568 0 30 13.432 30 30v30c0 67.89-37.348 127.834-93.2 159.27 20.544 21.546 33.2 50.68 33.2 82.73h30c16.568 0 30 13.432 30 30v30c0 67.704-37.58 126.788-92.968 157.514 20.408 21.522 32.968 50.556 32.968 82.486h30zM180 900c32.524 0 60-28.392 60-62 0-33.084-26.916-60-60-60s-60 26.916-60 60c0 33.608 27.476 62 60 62zM300-4h-240c0 67.272 53.832 122 120 122s120-54.728 120-122zM120 238c0 33.084 26.916 60 60 60s60-26.916 60-60-26.916-60-60-60-60 26.916-60 60zM300 298h-16.144c-20.782 35.832-59.538 60-103.856 60s-83.074-24.168-103.856-60h-16.144c0 66.168 53.832 120 120 120s120-53.832 120-120zM120 538c0 33.084 26.916 60 60 60s60-26.916 60-60-26.916-60-60-60-60 26.916-60 60zM180 658c-44.318 0-83.074-24.168-103.856-60h-16.144c0 66.168 53.832 120 120 120s120-53.832 120-120h-16.144c-20.782 35.832-59.538 60-103.856 60zM934 838h-424c-49.626 0-90-40.374-90-90s40.374-90 90-90h424c49.626 0 90 40.374 90 90s-40.374 90-90 90zM934 718h-424c-16.542 0-30 13.458-30 30s13.458 30 30 30h424c16.542 0 30-13.458 30-30s-13.458-30-30-30z" />
<glyph unicode="&#xe91f;" glyph-name="time" d="M632 718h-90v92c0 16.568-13.432 30-30 30s-30-13.432-30-30v-122c0-16.568 13.432-30 30-30h120c16.568 0 30 13.432 30 30s-13.432 30-30 30zM904 232.982v33.018c0 49.626-40.374 90-90 90h-272v61.688c134.812 15.084 240 130.546 240 270.312 0 149.982-121.122 272-270 272s-270-122.018-270-272c0-139.766 105.188-255.228 240-270.312v-61.688h-272c-49.626 0-90-40.374-90-90v-33.018c-68.384-13.938-120-74.544-120-146.982 0-82.71 67.29-150 150-150s150 67.29 150 150c0 72.438-51.616 133.044-120 146.982v33.018c0 16.542 13.458 30 30 30h272v-63.018c-68.384-13.936-120-74.542-120-146.982 0-82.71 67.29-150 150-150s150 67.29 150 150c0 72.438-51.616 133.044-120 146.982v63.018h272c16.542 0 30-13.458 30-30v-33.018c-68.384-13.936-120-74.542-120-146.982 0-82.71 67.29-150 150-150s150 67.29 150 150c0 72.438-51.616 133.044-120 146.982zM240 86c0-49.626-40.374-90-90-90s-90 40.374-90 90 40.374 90 90 90 90-40.374 90-90zM602 86c0-49.626-40.374-90-90-90s-90 40.374-90 90 40.374 90 90 90 90-40.374 90-90zM512 476c-115.794 0-210 95.102-210 212s94.206 212 210 212c115.794 0 210-95.102 210-212s-94.206-212-210-212zM874-4c-49.626 0-90 40.374-90 90s40.374 90 90 90 90-40.374 90-90-40.374-90-90-90z" />
<glyph unicode="&#xe920;" glyph-name="promotion" d="M598.926 755.514c20.408 21.522 32.968 50.556 32.968 82.486 0 66.040-53.352 122-120 122-66.716 0-120-56.012-120-122 0-31.93 12.56-60.964 32.968-82.486-55.39-30.726-92.968-89.81-92.968-157.514v-30c0-16.568 13.432-30 30-30h300c16.568 0 30 13.432 30 30v30c0 67.704-37.58 126.788-92.968 157.514zM511.894 900c32.524 0 60-28.392 60-62 0-33.084-26.916-60-60-60s-60 26.916-60 60c0 33.608 27.476 62 60 62zM391.894 598c0 66.168 53.832 120 120 120s120-53.832 120-120h-240zM961.894 238h-270v150c0 16.568-13.432 30-30 30h-300c-16.568 0-30-13.432-30-30v-90h-270c-16.568 0-30-13.432-30-30v-302c0-16.568 13.432-30 30-30 16.424 0 881.946 0 900 0 16.568 0 30 13.432 30 30v242c0 16.568-13.432 30-30 30zM331.894-4h-240v242h240v-242zM631.894-4h-240c0 5.506 0 356.008 0 362h240c0-15.87 0-346.816 0-362zM931.894-4h-240v182h240v-182zM315.524 537.62l-71.054 35.528-35.53 71.056c-5.082 10.164-15.47 16.584-26.834 16.584s-21.75-6.42-26.834-16.584l-35.528-71.056-71.054-35.528c-10.164-5.082-16.584-15.47-16.584-26.834s6.42-21.75 16.584-26.834l71.056-35.53 35.528-71.054c5.082-10.164 15.47-16.584 26.834-16.584 11.362 0 21.75 6.42 26.832 16.584l35.53 71.054 71.054 35.53c10.164 5.082 16.584 15.47 16.584 26.832-0.002 11.366-6.422 21.754-16.584 26.836zM208.692 497.618c-5.806-2.902-10.512-7.61-13.416-13.416l-13.17-26.336-13.168 26.336c-2.904 5.806-7.61 10.512-13.416 13.416l-26.336 13.17 26.336 13.168c5.806 2.904 10.512 7.61 13.416 13.416l13.168 26.336 13.17-26.336c2.902-5.806 7.61-10.512 13.416-13.416l26.336-13.168-26.336-13.17zM975.524 537.62l-71.054 35.528-35.53 71.056c-5.082 10.164-15.47 16.584-26.834 16.584s-21.75-6.42-26.834-16.584l-35.528-71.056-71.056-35.528c-10.164-5.082-16.584-15.47-16.584-26.834s6.42-21.75 16.584-26.834l71.056-35.53 35.528-71.054c5.082-10.164 15.47-16.584 26.834-16.584 11.362 0 21.75 6.42 26.832 16.584l35.53 71.054 71.054 35.53c10.164 5.082 16.584 15.47 16.584 26.832 0 11.366-6.42 21.754-16.582 26.836zM868.692 497.618c-5.806-2.902-10.512-7.61-13.416-13.416l-13.17-26.336-13.168 26.336c-2.904 5.806-7.61 10.512-13.416 13.416l-26.336 13.17 26.336 13.168c5.806 2.904 10.512 7.61 13.416 13.416l13.168 26.336 13.17-26.336c2.902-5.806 7.61-10.512 13.416-13.416l26.336-13.168-26.336-13.17z" />
<glyph unicode="&#xe921;" glyph-name="curriculum-vitae" d="M390.020 633.344c21.934 22.504 34.002 51.708 34.002 82.656 0 66.716-56.012 120-122 120-66.040 0-122-53.352-122-120 0-30.95 12.066-60.152 34.002-82.656-55.156-30.476-94.002-88.752-94.002-157.344v-30c0-16.568 13.432-30 30-30h304c16.568 0 30 13.432 30 30v30c0 67.402-37.758 126.266-94.002 157.344zM302.022 776c33.608 0 62-27.476 62-60s-28.392-60-62-60c-33.608 0-62 27.476-62 60s28.392 60 62 60zM180.022 476c0 66.168 54.728 120 122 120s122-53.832 122-120h-244zM997.662 616.33c-35.090 35.092-92.19 35.092-127.28 0l-26.36-26.36v156.034c0 7.804-2.978 15.28-8.784 21.21-0.002 0.002-0.002 0.004-0.004 0.004l-179.766 183.76c-5.854 5.95-13.748 9.022-21.446 9.022h-544c-49.744 0-90-42.192-90-92v-842c0-49.626 40.374-90 90-90h664c49.626 0 90 40.374 90 90v309.412l153.64 153.638c35.088 35.090 35.088 92.188 0 127.28zM664.022 856.432l78.684-80.432h-78.684v80.432zM784.022 26c0-16.542-13.458-30-30-30h-664c-16.542 0-30 13.458-30 30v842c0 17.046 14.018 32 30 32h514v-154c0-16.568 13.432-30 30-30h150v-186.032l-253.052-253.050c-2.088-2.086-4.162-4.882-5.62-7.796l-76.56-153.122h-116.768c-16.568 0-30-13.432-30-30s13.432-30 30-30h122c2.298 0 20.77 0.19 26.726 3.166l169.706 84.852c2.944 1.484 5.652 3.482 7.796 5.62l125.772 125.772v-249.41zM604.286 188.018l-69.874-34.936 34.938 69.874c16.462-5.438 29.5-18.474 34.936-34.938zM651.75 227.992c-10.146 17.61-24.818 32.282-42.426 42.428l197.42 197.416 42.426-42.426-197.42-197.418zM955.234 531.476l-63.64-63.638-42.426 42.426 63.64 63.64c11.698 11.696 30.73 11.696 42.426 0 11.698-11.698 11.698-30.73 0-42.428zM694.022 656h-120c-16.568 0-30-13.432-30-30s13.432-30 30-30h120c16.568 0 30 13.432 30 30s-13.432 30-30 30zM694.022 536h-120c-16.568 0-30-13.432-30-30s13.432-30 30-30h120c16.568 0 30 13.432 30 30s-13.432 30-30 30zM394.022 356h-244c-16.568 0-30-13.432-30-30s13.432-30 30-30h244c16.568 0 30 13.432 30 30s-13.432 30-30 30zM394.022 236h-244c-16.568 0-30-13.432-30-30s13.432-30 30-30h244c16.568 0 30 13.432 30 30s-13.432 30-30 30z" />
<glyph unicode="&#xe922;" glyph-name="certificate" d="M871.998 960h-540.003c-0.002 0-0.002 0-0.004 0-82.706-0.004-149.992-67.292-149.992-150 0-20.8 0-551.179 0-571.999h-152c-16.568 0-30-13.432-30-30v-30c0-66.766 56.076-119.998 121.996-120h360.003v-92c0-12.178 7.364-23.15 18.634-27.764 11.272-4.614 24.214-1.956 32.754 6.726l98.612 100.256 98.612-100.256c8.544-8.688 21.488-11.338 32.754-6.726 11.272 4.614 18.634 15.586 18.634 27.764v95.018c68.384 13.936 120 74.542 120 146.982v571.999h92c7.956 0 15.586 3.162 21.212 8.788s8.788 13.254 8.788 21.212c0 82.928-69.070 150-152 150zM122 118.002c-33.606 0-62 27.476-62 60h122c0-33.084-26.916-60-60-60zM721.999 39.284l-68.612 69.756c-5.64 5.732-13.346 8.962-21.388 8.962s-15.748-3.23-21.388-8.962l-68.612-69.756v168.8c25.088-18.876 56.258-30.082 90-30.082s64.912 11.206 90 30.082v-168.8zM631.999 238.001c-49.626 0-90 40.374-90 90s40.374 90 90 90 90-40.374 90-90-40.374-90-90-90zM841.998 208.001c0-39.11-25.082-72.456-60-84.84v204.84c0 82.71-67.29 150-150 150h-240c-16.568 0-30-13.432-30-30s13.432-29.8 30-29.8h120.082c-18.876-25.088-30.082-56.458-30.082-90.2v-210h-256.143c10.246 17.666 16.144 38.15 16.144 60 0 4.2 0 622.373 0 631.999 0 49.626 40.374 90 90 90s90-40.374 90-90c0-16.568 13.432-30 30-30h389.999v-571.999zM478.981 840c-4.516 22.156-13.934 42.55-27.064 60h420.081c39.18 0 73.582-25.436 86.53-60h-479.547zM691.999 600.001h-299.999c-16.568 0-30-13.432-30-30s13.432-30 30-30h299.999c16.568 0 30 13.432 30 30s-13.432 30-30 30zM691.999 720h-299.999c-16.568 0-30-13.432-30-30s13.432-30 30-30h299.999c16.568 0 30 13.432 30 30s-13.432 30-30 30z" />
<glyph unicode="&#xe923;" glyph-name="smartphone" d="M390 116h-120c-16.568 0-30-13.432-30-30s13.432-30 30-30h120c16.568 0 30 13.432 30 30s-13.432 30-30 30zM934 840h-274v30c0 49.626-40.374 90-90 90h-480c-49.626 0-90-40.374-90-90v-844c0-49.626 40.374-90 90-90h480c49.626 0 90 40.374 90 90v394h274c49.626 0 90 40.374 90 90v240c0 49.626-40.374 90-90 90zM60 870c0 16.542 13.458 30 30 30h480c16.542 0 30-13.458 30-30v-30c-17.936 0-529.786 0-540 0v30zM600 26c0-16.542-13.458-30-30-30h-480c-16.542 0-30 13.458-30 30v150h540v-150zM600 236h-540v544h305.16c-3.33-9.39-5.16-19.484-5.16-30v-240c0-49.626 40.374-90 90-90h30v-90c0-12.134 7.31-23.074 18.52-27.716 11.212-4.642 24.114-2.076 32.694 6.504l68.786 68.786v-141.574zM964 510c0-16.542-13.458-30-30-30h-304c-8.224 0-15.996-3.568-21.212-8.788l-68.788-68.786v47.574c0 16.568-13.432 30-30 30h-60c-16.542 0-30 13.458-30 30v240c0 16.542 13.458 30 30 30 13.878 0 470.12 0 484 0 16.542 0 30-13.458 30-30v-240zM874 720h-364c-16.568 0-30-13.432-30-30s13.432-30 30-30h364c16.568 0 30 13.432 30 30s-13.432 30-30 30zM690 600h-180c-16.568 0-30-13.432-30-30s13.432-30 30-30h180c16.568 0 30 13.432 30 30s-13.432 30-30 30z" />
<glyph unicode="&#xe924;" glyph-name="calendar" d="M874 236h-90v90c0 16.568-13.432 30-30 30s-30-13.432-30-30v-120c0-16.568 13.432-30 30-30h120c16.568 0 30 13.432 30 30s-13.432 30-30 30zM270 416h-120c-16.568 0-30-13.432-30-30s13.432-30 30-30h120c16.568 0 30 13.432 30 30s-13.432 30-30 30zM270 236h-120c-16.568 0-30-13.432-30-30s13.432-30 30-30h120c16.568 0 30 13.432 30 30s-13.432 30-30 30zM934 840h-30v30c0 49.626-40.374 90-90 90s-90-40.374-90-90v-30h-120v30c0 49.626-40.374 90-90 90s-90-40.374-90-90v-30h-124v30c0 49.626-40.374 90-90 90s-90-40.374-90-90v-30h-30c-49.626 0-90-40.374-90-90v-664c0-49.626 40.374-90 90-90h494.502c46.372-37.5 105.352-60 169.498-60 148.878 0 270 121.122 270 270v544c0 49.626-40.374 90-90 90zM784 870c0 16.542 13.458 30 30 30s30-13.458 30-30v-120c0-16.542-13.458-30-30-30s-30 13.458-30 30v120zM484 809.98c0 0.006 0 0.012 0 0.020s0 0.012 0 0.020v59.98c0 16.542 13.458 30 30 30s30-13.458 30-30v-120c0-16.542-13.458-30-30-30s-30 13.458-30 30v59.98zM180 870c0 16.542 13.458 30 30 30s30-13.458 30-30v-120c0-16.542-13.458-30-30-30s-30 13.458-30 30v120zM754-4c-115.794 0-210 94.206-210 210s94.206 210 210 210c115.794 0 210-94.206 210-210s-94.206-210-210-210zM964 375.498c-49.538 61.254-125.266 100.502-210 100.502-64.906 0-124.53-23.026-171.148-61.332-2.798 0.864-5.77 1.332-8.852 1.332h-120c-16.568 0-30-13.432-30-30s13.432-29.8 30-29.8h75.612c-23.528-35.082-39.044-76.16-43.936-120.2h-31.676c-16.568 0-30-13.432-30-30s13.432-30 30-30h31.676c4.892-44.040 20.408-84.918 43.936-120h-439.612c-16.542 0-30 13.458-30 30v450h904v-160.502zM964 596h-904v154c0 16.542 13.458 30 30 30h30v-30c0-49.626 40.374-90 90-90s90 40.374 90 90v30h124v-30c0-49.626 40.374-90 90-90s90 40.374 90 90v30h120v-30c0-49.626 40.374-90 90-90s90 40.374 90 90v30h30c16.542 0 30-13.458 30-30v-154z" />
<glyph unicode="&#xe925;" glyph-name="money" d="M512 296.010c-16.542 0-30 13.458-30 30 0 12.574 7.93 23.91 19.732 28.208 15.41 5.61 33.348-2 49.212-20.89 10.658-12.688 29.582-14.334 42.266-3.678 12.688 10.656 14.334 29.58 3.678 42.266-16.218 19.31-35.094 32.584-54.89 39.248v34.848c0 16.568-13.432 30-30 30s-30-13.432-30-30v-35.144c-0.268-0.094-0.536-0.176-0.802-0.274-35.406-12.896-59.196-46.886-59.196-84.582 0-49.626 40.374-90 90-90 16.542 0 30-13.458 30-30 0-12.084-7.19-22.936-18.32-27.65-13.43-5.688-29.512-0.834-44.116 13.318-11.9 11.528-30.892 11.228-42.42-0.672-11.53-11.9-11.228-30.892 0.67-42.422 13.544-13.122 28.602-22.392 44.186-27.626v-34.95c0-16.568 13.432-30 30-30s30 13.432 30 30v35.142c1.702 0.606 3.398 1.248 5.080 1.96 33.362 14.13 54.92 46.67 54.92 82.898 0 49.626-40.374 90-90 90zM1001.028 206.012c14.278 15.934 22.972 36.97 22.972 60 0 49.626-40.374 90-90 90h-104.476c-10.232 36.050-26.464 69.6-47.524 99.516v222.058l8.788-8.788c5.858-5.858 13.536-8.786 21.212-8.786s15.356 2.93 21.212 8.786c11.716 11.716 11.716 30.71 0 42.426l-60 60c-11.61 11.61-30.668 11.762-42.426 0l-60-60c-11.716-11.716-11.716-30.71 0-42.426 11.714-11.716 30.71-11.716 42.426 0l8.788 8.788v-157.202c-49.852 41.228-111.984 68.090-180 74.25v262.952l8.788-8.788c11.716-11.716 30.71-11.716 42.426 0s11.716 30.71 0 42.426l-60 60c-11.512 11.536-30.59 11.836-42.426 0l-60-60c-11.716-11.716-11.716-30.71 0-42.426 11.714-11.716 30.71-11.716 42.426 0l8.786 8.788v-262.952c-68.016-6.16-130.148-33.022-180-74.25v157.202l8.788-8.788c11.716-11.716 30.71-11.716 42.426 0s11.716 30.71 0 42.426l-60 60c-11.678 11.702-30.774 11.654-42.426 0l-60-60c-11.716-11.716-11.716-30.71 0-42.426 11.714-11.716 30.71-11.716 42.426 0l8.788 8.788v-222.058c-21.062-29.916-37.292-63.466-47.524-99.516h-104.478c-49.626 0-90-40.374-90-90 0-23.030 8.694-44.066 22.972-60-14.278-15.934-22.972-36.97-22.972-60 0-23.034 8.708-44.064 22.99-60-14.282-15.934-22.99-36.966-22.99-60 0-49.626 40.374-90 90-90h242c22.538 0 43.56 8.212 59.768 22.678 37.274-14.634 77.83-22.678 120.232-22.678s82.958 8.046 120.232 22.678c16.208-14.468 37.23-22.678 59.768-22.678h242c49.626 0 90 40.374 90 90 0 23.034-8.708 44.064-22.99 60 14.284 15.936 22.99 36.966 22.99 60 0 23.030-8.694 44.066-22.972 60zM90 296.212h93.378c-0.896-9.884-1.378-20.086-1.378-30.2s0.484-20.116 1.378-30h-93.378c-16.542 0-30 13.458-30 30s13.458 30.2 30 30.2zM90 176.012h104.476c5.936-20.914 13.886-40.988 23.628-60h-128.104c-16.542 0-30 13.458-30 30s13.458 30 30 30zM90-3.988c-16.542 0-30 13.458-30 30s13.458 30 30 30h167.628c18.828-22.766 40.654-42.962 64.856-60h-232.484zM512-3.988c-148.878 0-270 121.122-270 270s121.122 270 270 270 270-121.122 270-270-121.122-270-270-270zM934-3.988h-232.484c24.202 17.038 46.028 37.234 64.856 60h167.628c16.542 0 30-13.458 30-30s-13.458-30-30-30zM934 116.012h-128.104c9.742 19.012 17.692 39.086 23.628 60h104.476c16.542 0 30-13.458 30-30s-13.458-30-30-30zM934 236.012h-93.378c0.896 9.884 1.378 19.886 1.378 30s-0.482 20.116-1.378 30h93.378c16.542 0 30-13.458 30-30s-13.458-30-30-30z" />
<glyph unicode="&#xe926;" glyph-name="group-1" d="M911.354 152.024c32.186 27.532 52.646 68.398 52.646 113.976 0 82.71-67.29 150-150 150-82.926 0-152-67.068-152-150 0-43.376 18.818-84.59 53.754-114.036-19.826-10.212-38.026-23.428-53.704-39.208-15.342 15.682-33.11 28.976-52.696 39.268 32.186 27.532 52.646 68.398 52.646 113.976 0 82.71-67.29 150-150 150s-150-67.29-150-150c0-45.578 20.46-86.444 52.646-113.976-19.526-10.26-37.246-23.504-52.556-39.122-15.494 15.85-33.294 29.022-52.68 39.172 32.154 27.532 52.59 68.376 52.59 113.926 0 82.71-67.29 150-150 150s-150-67.29-150-150c0-45.412 20.312-86.144 52.298-113.674-67.858-35.056-114.298-105.414-114.298-186.326 0-16.568 13.432-30 30-30 5.222 0 943.752 0 964 0 16.568 0 30 13.432 30 30 0 80.68-45.742 150.868-112.646 186.024zM212 356c49.626 0 90-40.374 90-90s-40.374-90-90-90-90 40.374-90 90 40.374 90 90 90zM304.152-4h-241.098c14.124 68.382 75.542 120 148.946 120 44.24 0 85.68-19.36 114.032-52.54-10.892-20.7-18.428-43.428-21.88-67.46zM512 356c49.626 0 90-40.374 90-90s-40.374-90-90-90-90 40.374-90 90 40.374 90 90 90zM365.014-4c13.938 68.382 74.548 120 146.986 120s133.048-51.618 146.986-120c-9.874 0-281.652 0-293.972 0zM814 356c49.626 0 90-40.374 90-90s-40.374-90-90-90c-49.87 0-92 41.214-92 90s42.13 90 92 90zM719.848-4c-3.448 24.004-10.97 46.708-21.844 67.39 28.438 32.812 71.38 52.61 115.996 52.61 72.438 0 133.048-51.618 146.986-120h-241.138zM653.212 799.212c-11.714 11.716-30.71 11.716-42.426 0l-98.786-98.786-38.788 38.788c-11.714 11.716-30.71 11.716-42.426 0s-11.716-30.71 0-42.426l60-60c5.858-5.86 13.536-8.788 21.214-8.788s15.356 2.928 21.212 8.786l120 120c11.716 11.716 11.716 30.71 0 42.426zM542 960c-132.336 0-240-108.56-240-242s107.664-242 240-242c132.466 0 242 109.068 242 242 0 132.466-109.068 242-242 242zM542 536c-99.252 0-180 81.646-180 182s80.748 182 180 182c98.654 0 182-83.346 182-182s-83.346-182-182-182z" />
<glyph unicode="&#xe927;" glyph-name="manager" d="M650.24 454.444c78.852 47.546 131.76 134.438 131.76 233.556 0 149.982-121.122 272-270 272s-270-122.018-270-272c0-99.118 52.908-186.010 131.76-233.554-177.14-56.944-311.76-224.238-311.76-428.446 0-49.626 40.374-90 90-90 8.432 0 698.256 0 720 0 49.626 0 90 40.374 90 90 0 204.18-134.59 371.492-311.76 428.444zM302 688c0 116.898 94.206 212 210 212s210-95.102 210-212c0-116.896-94.206-212-210-212s-210 95.104-210 212zM568.098 411.95l-56.098-46.86-56.098 46.86c18.324 2.65 37.050 4.050 56.098 4.050s37.774-1.4 56.098-4.050zM426.586-4h-274.586c-16.542 0-30 13.458-30 30 0 124.356 58.504 235.302 149.434 306.766l95.604-143.406c10.486-15.726 32.772-17.974 46.174-4.572l10.57 10.57 27.022-54.046-24.218-145.312zM411.236 267.662c-0.028-0.026-0.054-0.054-0.082-0.082l-14.49-14.49-75.34 113.010c19.98 11.246 41.044 20.784 62.996 28.412 2.896-3.754-2.484 1.128 83.266-70.5l-56.35-56.35zM487.414-4l24.178 145.068c0.272 1.632 0.408 3.278 0.408 4.916 0-1.64 0.136-3.284 0.408-4.916l24.178-145.068h-49.172zM515.166 159.416c-2.090-4.182-3.166-8.772-3.166-13.402-0.002 4.63-1.076 9.22-3.166 13.402l-40.33 80.662 43.496 43.496 43.496-43.496-40.33-80.662zM639.68 394.512c25.014-8.692 48.874-19.862 71.292-33.216l-82.218-109.624-15.914 15.914c-0.024 0.024-0.046 0.048-0.072 0.072l-56.354 56.354c85.886 71.742 80.406 66.794 83.266 70.5zM872-4h-274.586l-24.218 145.31 27.022 54.046 10.57-10.57c12.886-12.886 34.254-11.398 45.212 3.214l104.050 138.734c86.642-71.592 141.95-179.824 141.95-300.734 0-16.542-13.458-30-30-30z" />
<glyph unicode="&#xe928;" glyph-name="stamp" d="M812.016 298.020h-150.008v30.002c0 37.494-23.054 69.694-55.724 83.204 11.36 68.166 29.586 132.012 88.264 234.928 17.964 31.51 27.46 67.434 27.46 103.89 0 116.154-94.306 210.826-212.012 209.95-104.484-0.778-186.576-77.014-204.092-168.882-10.838-56.84 1.010-113.86 33.37-160.556 44.38-64.050 65.762-143.26 78.44-219.33-32.67-13.51-55.724-45.71-55.724-83.204v-30.002h-150.008c-82.714 0-150.008-67.294-150.008-150.008v-62.004c0-16.568 13.432-30.002 30.002-30.002h30.002v-30.002c0-49.628 40.376-90.004 90.004-90.004h600.032c49.628 0 90.006 40.376 90.006 90.004v30.002h30.002c16.568 0 30.002 13.432 30.002 30.002v62.004c0 82.714-67.294 150.008-150.008 150.008zM388.596 664.728c-23.114 33.358-31.548 74.25-23.75 115.144 12.22 64.084 71.042 121.060 149.152 120.198 82.24-0.908 148.008-68.278 148.008-150.026 0-26.052-6.772-51.698-19.584-74.17-62.666-109.91-82.77-179.458-95.838-257.848h-69.176c-14.448 86.74-38.184 173.636-88.812 246.702zM602.004 328.022v-30.002h-180.010v30.002c0 16.542 13.458 30.002 30.002 30.002h120.006c16.544-0.002 30.002-13.46 30.002-30.002zM842.018 26.004c0-16.542-13.458-30.002-30.002-30.002h-600.032c-16.542 0-30.002 13.458-30.002 30.002v30.002h660.036v-30.002zM902.022 116.010c-34.596 0-716.574 0-780.042 0v32.002c0 49.628 40.376 90.004 90.004 90.004 14.68 0 530.844 0 600.032 0 49.628 0 90.006-40.376 90.006-90.004v-32.002z" />
<glyph unicode="&#xe929;" glyph-name="settings" d="M1007.122 534.978l-60.796 29.572c-10.138 37.844-25.206 74.13-44.938 108.218l20.912 62.732c3.592 10.78 0.788 22.666-7.248 30.7l-84.852 84.85c-8.034 8.036-19.916 10.836-30.7 7.248l-62.732-20.912c-34.086 19.732-70.374 34.8-108.218 44.938l-29.572 60.798c-5.022 10.326-15.496 16.878-26.978 16.878h-120c-11.482 0-21.956-6.552-26.978-16.878l-29.572-60.796c-37.84-10.138-74.132-25.208-108.218-44.938l-62.732 20.91c-10.78 3.592-22.666 0.786-30.7-7.248l-84.85-84.85c-8.036-8.034-10.84-19.918-7.248-30.7l20.91-62.732c-19.73-34.084-34.8-70.378-44.938-108.218l-60.796-29.572c-10.326-5.022-16.878-15.496-16.878-26.978v-120c0-11.482 6.552-21.956 16.878-26.978l60.796-29.572c10.138-37.84 25.208-74.132 44.938-108.218l-20.91-62.726c-3.592-10.78-0.788-22.666 7.248-30.7l84.85-84.856c8.036-8.036 19.92-10.842 30.7-7.248l62.732 20.91c34.086-19.73 70.378-34.8 108.218-44.938l29.572-60.796c5.022-10.326 15.496-16.878 26.978-16.878h120c11.482 0 21.956 6.552 26.978 16.878l29.572 60.796c37.84 10.138 74.132 25.208 108.218 44.938l62.732-20.91c10.778-3.592 22.666-0.788 30.7 7.248l84.85 84.854c8.034 8.036 10.84 19.92 7.246 30.7l-20.91 62.726c19.73 34.086 34.8 70.378 44.938 108.218l60.796 29.572c10.328 5.024 16.88 15.498 16.88 26.98v120c0 11.482-6.552 21.956-16.878 26.978zM964 406.768l-56.494-27.478c-8.126-3.952-14.040-11.358-16.092-20.16-9.6-41.132-25.86-80.318-48.328-116.464-4.71-7.578-5.804-16.86-2.982-25.324l19.408-58.224-58.63-58.632-58.228 19.41c-8.466 2.824-17.748 1.73-25.324-2.982-36.146-22.468-75.33-38.728-116.464-48.328-8.8-2.054-16.206-7.966-20.158-16.092l-27.476-56.494h-82.462l-27.478 56.494c-3.952 8.126-11.358 14.040-20.16 16.092-41.132 9.6-80.316 25.86-116.464 48.328-7.578 4.708-16.856 5.802-25.324 2.982l-58.226-19.41-58.632 58.634 19.408 58.222c2.822 8.464 1.73 17.746-2.98 25.324-22.468 36.148-38.728 75.332-48.328 116.464-2.054 8.8-7.966 16.208-16.092 20.16l-56.494 27.478v82.462l56.494 27.478c8.126 3.952 14.040 11.358 16.092 20.158 9.6 41.134 25.86 80.318 48.328 116.464 4.71 7.578 5.802 16.858 2.982 25.324l-19.41 58.228 58.63 58.63 58.226-19.41c8.466-2.822 17.746-1.728 25.324 2.982 36.146 22.468 75.332 38.728 116.464 48.328 8.8 2.054 16.208 7.966 20.16 16.092l27.478 56.496h82.462l27.478-56.494c3.952-8.126 11.358-14.040 20.158-16.092 41.134-9.6 80.318-25.862 116.462-48.328 7.58-4.71 16.86-5.802 25.326-2.982l58.228 19.41 58.63-58.63-19.41-58.228c-2.822-8.466-1.728-17.748 2.982-25.326 22.466-36.144 38.728-75.328 48.328-116.462 2.054-8.8 7.966-16.206 16.092-20.158l56.496-27.478v-82.464zM512 778c-181.962 0-330-148.038-330-330 0-181.712 147.858-330 330-330 181.946 0 330 148.094 330 330 0 181.962-148.038 330-330 330zM512 178c-55.138 0-106.46 16.626-149.24 45.11 7.602 75.64 71.63 134.89 149.24 134.89s141.638-59.25 149.24-134.89c-42.78-28.484-94.102-45.11-149.24-45.11zM422 508c0 49.626 40.374 90 90 90s90-40.374 90-90-40.374-90-90-90-90 40.374-90 90zM713.204 268.162c-16.336 54.534-54.278 99.814-103.85 125.862 32.186 27.532 52.646 68.398 52.646 113.976 0 82.71-67.29 150-150 150s-150-67.29-150-150c0-45.578 20.46-86.444 52.646-113.976-49.572-26.048-87.514-71.328-103.85-125.862-42.756 47.784-68.796 110.824-68.796 179.838 0 148.878 121.122 270 270 270s270-121.122 270-270c0-69.014-26.040-132.054-68.796-179.838z" />
<glyph unicode="&#xe92a;" glyph-name="shortcut" d="M842 413.25v456.75c0 49.626-40.374 90-90 90s-90-40.374-90-90v-30h-300v30c0 49.626-40.374 90-90 90s-90-40.374-90-90v-456.75c-115.95-51.142-182-125.954-182-207.25 0-157.758 238.584-270 512-270 274.674 0 512 112.878 512 270 0 81.296-66.050 156.108-182 207.25zM182 64.656c-77.57 39.288-122 90.682-122 141.344 0 50.518 44.85 101.538 122 140.874v-282.218zM302 20.834c-20.834 5.27-40.88 11.35-60 18.2 0 30.704 0 779.376 0 830.966 0 16.542 13.458 30 30 30s30-13.458 30-30v-849.166zM662 8.254c-47.614-8.052-98.13-12.254-150-12.254s-102.386 4.204-150 12.254v47.746h300v-47.746zM662 116h-300v120h300v-120zM662 296h-300v120h300v-120zM662 476h-300v120h300v-120zM662 656h-300v124h300v-124zM782 39.034c-19.12-6.848-39.166-12.928-60-18.2v849.166c0 16.542 13.458 30 30 30s30-13.458 30-30c0-52.346 0-800.618 0-830.966zM842 64.656v282.218c77.15-39.336 122-90.356 122-140.874 0-50.662-44.43-102.056-122-141.344z" />
<glyph unicode="&#xe92b;" glyph-name="group" d="M854.094 668.244c29.442 27.404 47.906 66.456 47.906 109.756 0 82.71-67.29 150-150 150s-150-67.29-150-150c0-43.384 18.534-82.506 48.078-109.92-59.158-24.086-108.432-68.658-138.078-126.164-29.646 57.506-78.92 102.076-138.078 126.164 29.544 27.414 48.078 66.536 48.078 109.92 0 82.71-67.29 150-150 150s-150-67.29-150-150c0-43.3 18.464-82.352 47.906-109.756-99.536-40.16-169.906-137.19-169.906-250.244 0-16.568 13.432-30 30-30h335.018c-1.976-9.696-3.018-19.728-3.018-30 0-43.412 18.556-82.556 48.132-109.972-98.526-40.288-168.132-137.174-168.132-250.028 0-16.568 13.432-30 30-30h480c16.568 0 30 13.432 30 30 0 112.854-69.606 209.74-168.132 250.028 29.576 27.416 48.132 66.56 48.132 109.972 0 10.272-1.042 20.304-3.018 30h335.018c16.568 0 30 13.432 30 30 0 113.054-70.37 210.084-169.906 250.244zM752 867.8c49.626 0 90-40.374 90-90s-40.374-90-90-90-90 40.374-90 90c0 49.626 40.374 90 90 90zM602 357.8c0-49.626-40.374-90-90-90s-90 40.374-90 90 40.374 90 90 90 90-40.374 90-90zM272 867.8c49.626 0 90-40.374 90-90s-40.374-90-90-90-90 40.374-90 90c0 49.626 40.374 90 90 90zM392.080 447.798c-0.028-0.002-0.054 0.002-0.080 0.002h-329.844c14.742 101.634 103.228 180 209.844 180 85.2 0 160.65-51.112 193.18-127.522-29.418-9.692-54.852-28.226-73.1-52.48zM719.864 27.8h-415.728c14.6 101.634 102.252 180 207.864 180s193.262-78.366 207.864-180zM632 447.8c-0.026 0-0.052-0.004-0.080-0.004-18.248 24.254-43.682 42.788-73.1 52.48 32.53 76.412 107.978 127.524 193.18 127.524 106.616 0 195.102-78.366 209.844-180h-329.844z" />
<glyph unicode="&#xe92c;" glyph-name="target" d="M512 478c-16.542 0-30 13.458-30 30 0 12.572 7.93 23.908 19.732 28.206 15.412 5.61 33.348-2 49.212-20.89 10.656-12.688 29.578-14.336 42.266-3.678 12.688 10.656 14.334 29.58 3.678 42.266-16.218 19.31-35.096 32.586-54.89 39.25v34.846c0 16.568-13.432 30-30 30s-30-13.432-30-30v-35.144c-0.268-0.094-0.536-0.176-0.802-0.274-35.406-12.896-59.196-46.888-59.196-84.582 0-49.626 40.374-90 90-90 16.542 0 30-13.458 30-30 0-12.084-7.19-22.936-18.318-27.65-13.436-5.688-29.512-0.834-44.118 13.318-11.9 11.528-30.892 11.228-42.42-0.67-11.53-11.9-11.228-30.892 0.67-42.42 13.544-13.122 28.602-22.394 44.186-27.626v-34.952c0-16.568 13.432-30 30-30s30 13.432 30 30v35.142c1.702 0.604 3.398 1.246 5.080 1.96 33.362 14.128 54.92 46.668 54.92 82.898 0 49.626-40.374 90-90 90zM994 478h-33.024c-14.836 224.274-194.702 404.14-418.976 418.976v33.024c0 16.568-13.432 30-30 30s-30-13.432-30-30v-33.024c-224.274-14.836-404.14-194.702-418.976-418.976h-33.024c-16.568 0-30-13.432-30-30s13.432-30 30-30h33.024c14.836-224.274 194.702-404.14 418.976-418.976v-33.024c0-16.568 13.432-30 30-30s30 13.432 30 30v33.024c224.274 14.836 404.14 194.702 418.976 418.976h33.024c16.568 0 30 13.432 30 30s-13.432 30-30 30zM482 836.858v-60.236c-158.070-14.314-284.308-140.552-298.622-298.622h-60.236c14.612 191.182 167.676 344.246 358.858 358.858zM482 59.142c-191.182 14.612-344.246 167.676-358.858 358.858h60.236c14.314-158.070 140.552-284.308 298.622-298.622v-60.236zM512 178c-148.878 0-270 121.122-270 270s121.122 270 270 270 270-121.122 270-270-121.122-270-270-270zM542 59.142v60.236c158.070 14.314 284.308 140.752 298.622 298.822h60.236c-14.612-191.182-167.676-344.446-358.858-359.058zM840.622 478c-14.314 158.070-140.552 284.308-298.622 298.622v60.236c191.182-14.612 344.246-167.676 358.858-358.858h-60.236z" />
<glyph unicode="&#xe92d;" glyph-name="teamwork" d="M909.702 696.326c31.986 27.53 52.298 68.262 52.298 113.674 0 82.71-67.29 150-150 150s-150-67.29-150-150c0-0.002 0-0.006 0-0.010-47.254 19.746-98.122 30.010-150 30.010-52.036 0-104.24-10.544-152.006-30.272 0 0.092 0.006 0.182 0.006 0.272 0 82.71-67.29 150-150 150s-150-67.29-150-150c0-45.578 20.46-86.444 52.646-113.976-66.904-35.156-112.646-105.344-112.646-186.024 0-16.568 13.432-30 30-30h91.166c-0.764-9.978-1.166-19.996-1.166-30 0-158.49 94.36-293.818 224.374-355.062-28.774-37.034-44.374-81.93-44.374-128.938 0-16.568 13.432-30 30-30h362c16.568 0 30 13.432 30 30 0 48.62-16.308 93.458-43.674 129.264 131.242 62.144 223.674 198.214 223.674 354.736 0 10.004-0.402 20.022-1.166 30h93.166c16.568 0 30 13.432 30 30 0 80.91-46.44 151.27-114.298 186.326zM812 900c49.626 0 90-40.374 90-90s-40.374-90-90-90-90 40.374-90 90 40.374 90 90 90zM210 900c49.626 0 90-40.374 90-90s-40.374-90-90-90-90 40.374-90 90 40.374 90 90 90zM63.014 540c13.938 68.382 74.548 120 146.986 120s133.048-51.618 146.986-120h-293.972zM363.112-4c14.376 68.61 76.728 122 148.888 122 72.578 0 133.284-52.504 147.066-122h-295.954zM420 268c0 48.786 42.13 90 92 90 49.626 0 90-40.374 90-90s-40.374-90-90-90c-49.87 0-92 41.214-92 90zM631.35 140.332c-7.084 4.958-14.482 9.488-22.16 13.552 32.282 27.532 52.81 68.46 52.81 114.116 0 82.71-67.29 150-150 150-82.926 0-152-67.070-152-150 0-40.076 16.044-77.83 45.176-106.306 2.872-2.808 5.858-5.452 8.904-8.004-7.724-4.092-15.222-8.676-22.454-13.742-127.154 48.962-211.626 171.806-211.626 310.052 0 10.012 0.47 20.038 1.37 30h208.63c16.568 0 30 13.432 30 30 0 80.68-45.742 150.868-112.646 186.024 11.784 10.080 21.998 21.936 30.204 35.172 51.31 31.484 112.954 48.804 174.442 48.804 61.138 0 120.59-16.88 172.434-48.792 8.208-13.242 18.426-25.102 30.214-35.186-66.906-35.154-112.648-105.342-112.648-186.022 0-16.568 13.432-30 30-30h208.63c0.9-9.962 1.37-19.988 1.37-30 0-137.89-84.040-260.454-210.65-309.668zM665.014 540c13.938 68.382 74.548 120 146.986 120 73.404 0 134.822-51.618 148.946-120h-295.932z" />
<glyph unicode="&#xe92e;" glyph-name="presentation" d="M970.084 123.472c-12.118 11.9-25.616 21.876-40.086 29.872 21.936 22.504 34.002 51.706 34.002 82.656 0 32.106-12.952 62.354-36.47 85.17-23.15 22.46-53.524 34.83-85.53 34.83-66.168 0-120-53.832-120-120 0-31.81 12.466-60.748 32.738-82.244-14.75-8.060-28.498-18.182-40.822-30.284-16.662-16.362-29.694-35.298-38.792-55.856-15.884 36.484-43.514 66.716-78.092 85.898 20.408 21.522 32.968 50.556 32.968 82.486 0 61.092-45.9 111.63-105.018 119.032-25.86 74.324-82.414 132.29-153.056 161.052 29.54 27.412 48.074 66.532 48.074 109.916 0 82.71-67.29 150-150 150s-150-67.29-150-150c0-43.412 18.556-82.556 48.132-109.972-98.526-40.288-168.132-137.174-168.132-250.028 0-16.568 13.432-30 30-30h30c0-31.93 12.56-60.964 32.968-82.486-55.388-30.726-92.968-89.81-92.968-157.514v-30c0-16.568 13.432-30 30-30h964c16.568 0 30 13.432 30 30v30c0 48.062-19.148 93.334-53.916 127.472zM510 296c33.084 0 60-26.916 60-60s-26.916-60-60-60-60 26.916-60 60 26.916 60 60 60zM270 716c49.626 0 90-40.374 90-90s-40.374-90-90-90-90 40.374-90 90 40.374 90 90 90zM76.146 296h-14.010c14.6 101.634 102.252 180 207.864 180 85.84 0 161.768-51.868 193.896-129.224-24.344-10.17-44.626-28.146-57.75-50.776h-122.288c-20.782 35.832-59.538 60-103.856 60s-83.074-24.168-103.856-60zM240 236c0-33.084-26.916-60-60-60s-60 26.916-60 60 26.916 60 60 60 60-26.916 60-60zM60-4c0 66.168 53.832 120 120 120s120-53.832 120-120h-240zM345 67.896c-15.904 36.358-43.48 66.484-77.968 85.618 20.408 21.522 32.968 50.556 32.968 82.486h90c0-31.93 12.56-60.964 32.968-82.486-34.488-19.132-62.064-49.26-77.968-85.618zM390-4c0 66.168 53.832 120 120 120s120-53.832 120-120h-240zM842 296c33.608 0 62-27.476 62-60s-28.392-60-62-60c-33.084 0-60 26.916-60 60s26.916 60 60 60zM720-4c0 66.168 54.728 120 122 120s122-53.832 122-120h-244zM998.112 932.158c-17.164 17.954-39.934 27.842-64.112 27.842h-364c-24.178 0-46.948-9.888-64.112-27.842-16.694-17.464-25.888-40.248-25.888-64.158v-302c0-49.626 40.374-90 90-90h364c49.626 0 90 40.374 90 90v302c0 23.91-9.194 46.694-25.888 64.158zM964 566c0-16.542-13.458-30-30-30h-364c-16.542 0-30 13.458-30 30v302c0 17.046 14.018 32 30 32h364c15.982 0 30-14.954 30-32v-302zM630 716c-16.568 0-30-13.432-30-30v-60c0-16.568 13.432-30 30-30s30 13.432 30 30v60c0 16.568-13.432 30-30 30zM752 776c-16.568 0-30-13.432-30-30v-120c0-16.568 13.432-30 30-30s30 13.432 30 30v120c0 16.568-13.432 30-30 30zM872 836c-16.568 0-30-13.432-30-30v-180c0-16.568 13.432-30 30-30s30 13.432 30 30v180c0 16.568-13.432 30-30 30z" />
<glyph unicode="&#xe92f;" glyph-name="calculator" d="M782 960h-540c-82.71 0-150-67.29-150-150v-784c0-49.626 40.374-90 90-90 29.764 0 643.44 0 660 0 49.626 0 90 40.374 90 90v784c0 82.71-67.29 150-150 150zM392-4h-120v120h120v-120zM392 176h-120v122h120v-122zM392 358h-120v120h120v-120zM572-4h-120v120h120v-120zM572 176h-120v122h120v-122zM572 358h-120v120h120v-120zM752-4h-120v302h120v-302zM752 358h-120v120h120v-120zM872 26c0-16.542-13.458-30-30-30h-30v512c0 16.568-13.432 30-30 30h-540c-16.568 0-30-13.432-30-30v-512h-30c-16.542 0-30 13.458-30 30v784c0 49.626 40.374 90 90 90h540c49.626 0 90-40.374 90-90v-784zM782 840h-540c-16.568 0-30-13.432-30-30v-182c0-16.568 13.432-30 30-30h540c16.568 0 30 13.432 30 30v182c0 16.568-13.432 30-30 30zM752 658h-480v122h480v-122z" />
<glyph unicode="&#xe930;" glyph-name="money-bag" d="M969.010 326c14.284 15.936 22.99 36.966 22.99 60 0 49.626-40.374 90-90 90h-151.372c-44.77 69.908-112.406 126.608-196.096 156.798 10.97 14.914 17.468 33.31 17.468 53.202 0 32.496-17.314 61.020-43.198 76.844l98.326 150.768c6.014 9.222 6.494 20.998 1.25 30.678s-15.368 15.71-26.378 15.71h-360c-11.010 0-21.134-6.030-26.378-15.71s-4.764-21.456 1.25-30.678l98.326-150.768c-25.884-15.824-43.198-44.348-43.198-76.844 0-19.892 6.498-38.286 17.466-53.202-150-54.366-257.466-198.262-257.466-366.798v-180c0-82.71 67.29-150 150-150 10.48 0 709.326 0 720 0 49.626 0 90 40.374 90 90 0 23.034-8.708 44.064-22.99 60 14.284 15.936 22.99 36.966 22.99 60s-8.708 44.064-22.99 60c14.284 15.936 22.99 36.966 22.99 60s-8.708 44.064-22.99 60zM297.38 900h249.238l-80.87-124h-87.498l-80.87 124zM512 686c0-16.542-13.458-30-30-30h-120c-16.542 0-30 13.458-30 30s13.458 30 30 30h120c16.542 0 30-13.458 30-30zM594.99 326c-14.282-15.936-22.99-36.966-22.99-60s8.708-44.064 22.99-60c-14.282-15.936-22.99-36.966-22.99-60s8.708-44.064 22.99-60c-14.282-15.936-22.99-36.966-22.99-60 0-10.516 1.83-20.61 5.16-30h-395.16c-49.626 0-90 40.374-90 90v180c0 181.962 148.038 330 330 330 98.996 0 192.37-44.928 254.53-120h-14.53c-49.626 0-90-40.374-90-90 0-23.034 8.708-44.064 22.99-60zM902-4h-240c-16.542 0-30 13.458-30 30s13.458 30 30 30h240c16.542 0 30-13.458 30-30s-13.458-30-30-30zM902 116h-240c-16.542 0-30 13.458-30 30s13.458 30 30 30h240c16.542 0 30-13.458 30-30s-13.458-30-30-30zM902 236h-240c-16.542 0-30 13.458-30 30s13.458 30 30 30h240c16.542 0 30-13.458 30-30s-13.458-30-30-30zM902 356h-240c-16.542 0-30 13.458-30 30s13.458 30 30 30h240c16.542 0 30-13.458 30-30s-13.458-30-30-30zM422 296c-16.542 0-30 13.458-30 30 0 12.572 7.93 23.906 19.732 28.206 15.408 5.61 33.348-2 49.212-20.89 10.656-12.688 29.582-14.334 42.266-3.678 12.688 10.656 14.334 29.58 3.678 42.266-16.218 19.31-35.094 32.584-54.89 39.248v34.848c0 16.568-13.432 30-30 30s-30-13.432-30-30v-35.144c-0.268-0.094-0.536-0.176-0.802-0.274-35.406-12.896-59.196-46.888-59.196-84.582 0-49.626 40.374-90 90-90 16.542 0 30-13.458 30-30 0-12.084-7.19-22.936-18.32-27.65-13.432-5.688-29.51-0.834-44.116 13.318-11.9 11.528-30.892 11.228-42.42-0.672-11.53-11.9-11.228-30.892 0.67-42.422 13.544-13.122 28.602-22.392 44.186-27.626v-34.948c0-16.568 13.432-30 30-30s30 13.432 30 30v35.142c1.702 0.606 3.398 1.248 5.080 1.96 33.362 14.128 54.92 46.668 54.92 82.898 0 49.626-40.374 90-90 90z" />
<glyph unicode="&#xe931;" glyph-name="hierarchical-structure" d="M911.19 153.882c32.282 27.534 52.81 68.462 52.81 114.118 0 82.71-67.29 150-150 150-72.438 0-133.044-51.616-146.982-120h-125.018v180h152c16.568 0 30 13.432 30 30 0 80.672-46.168 150.852-113.698 186.012 34.706 29.284 53.698 70.388 53.698 113.988 0 82.836-68.944 152-152 152-82.832 0-152-68.94-152-152 0-43.51 18.92-84.644 53.698-113.988-67.53-35.16-113.698-105.34-113.698-186.012 0-16.568 13.432-30 30-30h152v-180h-125.018c-13.936 68.384-74.542 120-146.982 120-82.71 0-150-67.29-150-150 0-45.656 20.528-86.584 52.81-114.118-66.994-35.462-112.81-106.366-112.81-187.882 0-16.568 13.432-30 30-30h360c16.568 0 30 13.432 30 30 0 81.516-45.816 152.42-112.81 187.882 25.018 21.34 42.984 50.714 49.792 84.118 13.612 0 296.426 0 310.036 0 6.808-33.404 24.772-62.778 49.792-84.118-66.994-35.462-112.81-106.366-112.81-187.882 0-16.568 13.432-30 30-30h360c16.568 0 30 13.432 30 30 0 81.516-45.816 152.42-112.81 187.882zM210 358c49.626 0 90-40.374 90-90s-40.374-90-90-90-90 40.374-90 90 40.374 90 90 90zM357.066-4h-294.132c13.784 69.494 74.488 122 147.066 122s133.284-52.506 147.066-122zM512 900c49.87 0 92-42.13 92-92 0-48.786-42.13-90-92-90s-92 41.214-92 90c0 49.87 42.13 92 92 92zM363.054 538c14.124 68.382 75.542 120 148.946 120s134.822-51.618 148.946-120h-297.892zM814 358c49.626 0 90-40.374 90-90s-40.374-90-90-90-90 40.374-90 90 40.374 90 90 90zM666.934-4c13.784 69.494 74.488 122 147.066 122s133.284-52.506 147.066-122h-294.132z" />
</font>
</defs>
</svg>
